<svg width="1568" height="1022" viewBox="0 0 1568 1022" fill="none" xmlns="http://www.w3.org/2000/svg">
<g filter="url(#filter0_d_33_172)">
<rect x="1142.37" y="230.166" width="14.6296" height="14.6716" rx="7.31478" fill="url(#paint0_linear_33_172)"/>
</g>
<g filter="url(#filter1_d_33_172)">
<rect x="1538.34" y="418.939" width="14.6296" height="14.6716" rx="7.31478" fill="url(#paint1_linear_33_172)"/>
</g>
<g filter="url(#filter2_d_33_172)">
<rect x="1382.29" y="567.612" width="14.6296" height="14.6716" rx="7.31478" fill="url(#paint2_linear_33_172)"/>
</g>
<g filter="url(#filter3_d_33_172)">
<rect x="1104.33" y="555.874" width="30.2344" height="30.3213" rx="15.1172" fill="url(#paint3_linear_33_172)"/>
</g>
<g filter="url(#filter4_d_33_172)">
<rect x="1373.52" y="510.882" width="17.5555" height="17.6059" rx="8.77774" fill="url(#paint4_linear_33_172)"/>
</g>
<g filter="url(#filter5_d_33_172)">
<rect x="903.42" y="509.903" width="17.5555" height="17.6059" rx="8.77774" fill="url(#paint5_linear_33_172)"/>
</g>
<g filter="url(#filter6_d_33_172)">
<rect x="1280.86" y="590.109" width="8.77774" height="8.80295" rx="4.38887" fill="url(#paint6_linear_33_172)"/>
</g>
<path d="M1201.34 89.2211C1201.34 89.2211 1115.27 92.0138 1093.49 131.808C1072.27 170.563 1112.59 243.387 1112.59 243.387C1112.59 243.387 1171.48 340.587 1155.25 403.053C1127.53 509.693 950.623 399.518 887.453 489.693C817.104 590.116 925.808 801.596 925.808 801.596" stroke="#FFC819" stroke-width="0.527835"/>
<path d="M1483.2 748.212C1483.2 748.212 1542.09 685.202 1529.43 641.615C1517.11 599.166 1437.25 576.263 1437.25 576.263C1437.25 576.263 1327.07 549.297 1294.51 493.614C1238.92 398.552 1441.7 351.005 1422.78 242.446C1401.72 121.549 1175.74 49.0959 1175.74 49.0959" stroke="#FCC822" stroke-width="0.791752"/>
<ellipse cx="1298.42" cy="365.144" rx="5.85183" ry="5.86863" fill="url(#paint7_linear_33_172)"/>
<ellipse cx="1327.68" cy="402.002" rx="5.85183" ry="5.86863" fill="url(#paint8_linear_33_172)"/>
<ellipse cx="1346.21" cy="402.003" rx="2.92591" ry="2.93432" fill="url(#paint9_linear_33_172)"/>
<circle cx="2.93012" cy="2.93012" r="2.93012" transform="matrix(0.706092 0.70812 -0.706092 0.70812 1340.78 410.993)" fill="url(#paint10_linear_33_172)"/>
<ellipse cx="1327.36" cy="420.586" rx="2.93432" ry="2.92591" transform="rotate(90 1327.36 420.586)" fill="url(#paint11_linear_33_172)"/>
<circle cx="2.93012" cy="2.93012" r="2.93012" transform="matrix(-0.706092 0.70812 -0.706092 -0.70812 1318.4 415.144)" fill="url(#paint12_linear_33_172)"/>
<ellipse cx="1309.15" cy="402.003" rx="2.92591" ry="2.93432" fill="url(#paint13_linear_33_172)"/>
<circle cx="2.93012" cy="2.93012" r="2.93012" transform="matrix(0.706092 0.70812 -0.706092 0.70812 1314.57 384.711)" fill="url(#paint14_linear_33_172)"/>
<ellipse cx="1327.36" cy="383.418" rx="2.93432" ry="2.92591" transform="rotate(90 1327.36 383.418)" fill="url(#paint15_linear_33_172)"/>
<circle cx="2.93012" cy="2.93012" r="2.93012" transform="matrix(-0.706092 0.70812 -0.706092 -0.70812 1344.6 388.861)" fill="url(#paint16_linear_33_172)"/>
<path d="M1264.5 559.46L1269.6 560.382C1275.02 561.356 1278.63 566.582 1277.66 572.049L1276.73 577.33C1275.76 582.798 1270.58 586.438 1265.16 585.462L1260.06 584.54C1254.64 583.564 1251.04 578.339 1252 572.871L1252.94 567.592C1253.91 562.123 1259.09 558.482 1264.5 559.46ZM1298.44 417.377C1311.69 419.767 1320.87 426.374 1325.98 437.191C1330.04 445.736 1331.17 455.111 1329.36 465.318C1326.34 482.39 1315.8 497.245 1297.75 509.88C1291.46 514.285 1287.51 520.021 1285.9 527.086C1285.3 529.429 1284.75 532.054 1284.23 534.958C1283.26 540.426 1278.09 544.066 1272.67 543.088L1267.57 542.169C1262.15 541.191 1258.54 535.967 1259.51 530.499V530.498C1262.27 514.921 1268.11 504.037 1277.04 497.835C1286.68 491.129 1293.79 483.741 1298.38 475.666C1301.01 470.965 1302.82 465.842 1303.8 460.298C1304.81 454.577 1304.34 449.862 1302.39 446.148C1300.27 441.863 1296.48 439.591 1291.04 439.335C1285.96 439.056 1281.77 441.887 1278.47 447.83C1278.3 448.117 1278.14 448.411 1277.98 448.711C1275.64 453.103 1270.44 455.08 1265.8 453.366L1261.26 451.686C1255.63 449.608 1253.06 443.003 1255.81 437.629C1258.54 432.287 1262.15 427.756 1266.62 424.033C1271.47 420.006 1277.66 417.578 1285.19 416.757C1289.14 416.291 1293.55 416.495 1298.44 417.377Z" fill="#AEDBED"/>
<path d="M1070.8 580.529L1075.03 580.732C1079.53 580.949 1083.01 584.805 1082.79 589.345L1082.58 593.731C1082.37 598.271 1078.55 601.777 1074.05 601.562L1069.81 601.358C1065.31 601.14 1061.84 597.285 1062.05 592.745L1062.26 588.358C1062.48 583.818 1066.3 580.312 1070.8 580.529ZM1083.48 461.599C1094.49 462.128 1102.63 466.512 1107.9 474.749C1112.1 481.25 1113.99 488.739 1113.59 497.215C1112.93 511.394 1105.93 524.572 1092.6 536.748C1087.95 540.994 1085.34 546.069 1084.77 551.975C1084.53 553.94 1084.36 556.129 1084.24 558.542C1084.03 563.082 1080.21 566.588 1075.71 566.373L1071.47 566.169C1066.97 565.952 1063.5 562.096 1063.71 557.556C1064.32 544.619 1067.93 535.162 1074.52 529.179C1081.65 522.709 1086.65 515.956 1089.53 508.914C1091.17 504.817 1092.1 500.468 1092.32 495.865C1092.54 491.115 1091.67 487.336 1089.7 484.531C1087.53 481.279 1084.22 479.838 1079.78 480.209C1075.62 480.523 1072.52 483.267 1070.46 488.442C1070.35 488.693 1070.25 488.949 1070.15 489.21C1068.71 493.023 1064.7 495.18 1060.76 494.283L1056.89 493.405C1052.11 492.317 1049.33 487.231 1051 482.575C1052.66 477.948 1055.11 473.887 1058.35 470.39C1061.87 466.605 1066.64 463.976 1072.66 462.508C1075.82 461.708 1079.43 461.404 1083.48 461.599" fill="#AEDBED"/>
<path d="M1145.52 409.401L1148.75 408.829C1152.18 408.22 1155.45 410.535 1156.05 413.998L1156.63 417.341C1157.23 420.802 1154.94 424.102 1151.51 424.709L1148.28 425.281C1144.85 425.889 1141.58 423.575 1140.98 420.112L1140.4 416.77C1139.79 413.308 1142.09 410.008 1145.52 409.401ZM1135.09 317.51C1143.48 316.023 1150.36 317.936 1155.72 323.247C1159.98 327.433 1162.67 332.758 1163.79 339.221C1165.67 350.032 1162.61 361.171 1154.6 372.641C1151.81 376.638 1150.7 380.913 1151.26 385.466C1151.41 386.991 1151.65 388.672 1151.97 390.51C1152.57 393.973 1150.27 397.271 1146.85 397.878L1143.61 398.45C1140.18 399.059 1136.91 396.744 1136.31 393.282C1134.6 383.419 1135.73 375.668 1139.7 370.026C1143.98 363.924 1146.62 357.972 1147.6 352.168C1148.15 348.796 1148.13 345.355 1147.52 341.845C1146.89 338.223 1145.59 335.523 1143.63 333.745C1141.45 331.662 1138.71 331.141 1135.42 332.183C1132.34 333.131 1130.46 335.732 1129.78 339.99C1129.74 340.197 1129.71 340.407 1129.68 340.622C1129.23 343.744 1126.57 346.06 1123.44 346.059L1120.38 346.057C1116.58 346.055 1113.64 342.694 1114.11 338.896C1114.59 335.122 1115.75 331.639 1117.61 328.446C1119.63 324.987 1122.78 322.188 1127.08 320.048C1129.32 318.905 1131.99 318.057 1135.09 317.51" fill="#AEDBED"/>
<path d="M909.155 507.61L911.3 508.17C913.577 508.764 914.944 511.11 914.355 513.407L913.785 515.625C913.196 517.924 910.872 519.304 908.595 518.709L906.45 518.15C904.173 517.553 902.806 515.21 903.396 512.912L903.965 510.693C904.555 508.395 906.879 507.014 909.155 507.61ZM928.215 448.189C933.785 449.647 937.482 452.763 939.307 457.541C940.762 461.314 940.94 465.347 939.839 469.638C937.998 476.811 933.028 482.794 924.928 487.582C922.104 489.25 920.234 491.563 919.318 494.521C918.989 495.501 918.667 496.598 918.354 497.82C917.765 500.118 915.441 501.499 913.164 500.902L911.021 500.343C908.744 499.748 907.375 497.403 907.965 495.105C909.645 488.559 912.486 484.114 916.492 481.767C920.818 479.225 924.088 476.313 926.301 473.024C927.574 471.108 928.511 468.985 929.108 466.653C929.725 464.251 929.677 462.226 928.965 460.579C928.201 458.683 926.662 457.59 924.352 457.303C922.197 457.015 920.319 458.082 918.72 460.507C918.64 460.625 918.561 460.744 918.483 460.867C917.344 462.66 915.066 463.33 913.144 462.449L911.262 461.583C908.931 460.51 908.05 457.613 909.397 455.413C910.734 453.227 912.415 451.415 914.441 449.976C916.639 448.42 919.355 447.591 922.589 447.488C924.287 447.419 926.163 447.654 928.215 448.189Z" fill="#AEDBED"/>
<path d="M993.393 517.092L1000.01 515.377C1007.04 513.554 1014.2 517.829 1016.01 524.923L1017.75 531.773C1019.56 538.867 1015.32 546.096 1008.29 547.917L1001.67 549.632C994.643 551.453 987.482 547.179 985.676 540.086L983.934 533.234C982.128 526.14 986.364 518.913 993.393 517.092ZM957.012 327.896C974.208 323.44 988.803 326.293 1000.8 336.449C1010.31 344.454 1016.75 355.076 1020.12 368.32C1025.76 390.472 1021.18 414.111 1006.38 439.243C1001.22 448.005 999.591 457.068 1001.49 466.434C1002.05 469.574 1002.8 473.029 1003.76 476.799C1005.57 483.893 1001.33 491.12 994.305 492.941L987.684 494.656C980.656 496.478 973.493 492.205 971.688 485.111C966.545 464.899 967.648 448.612 974.992 436.24C982.924 422.866 987.447 410.074 988.56 397.855C989.168 390.762 988.556 383.617 986.725 376.424C984.837 369.005 981.716 363.606 977.36 360.231C972.489 356.262 966.718 355.626 960.05 358.327C953.806 360.798 950.313 366.509 949.577 375.464C949.535 375.899 949.498 376.344 949.47 376.793C949.046 383.352 943.885 388.596 937.39 389.103L931.022 389.6C923.142 390.217 916.48 383.714 916.862 375.745C917.241 367.829 919.105 360.401 922.453 353.465C926.086 345.953 932.195 339.622 940.777 334.477C945.264 331.734 950.674 329.539 957.012 327.896" fill="#AEDBED"/>
<path d="M1426.6 521.503L1431.27 520.29C1436.24 519.003 1441.3 522.024 1442.58 527.036L1443.81 531.878C1445.08 536.891 1442.09 541.998 1437.12 543.286L1432.45 544.498C1427.48 545.786 1422.42 542.764 1421.14 537.752L1419.91 532.91C1418.63 527.898 1421.63 522.79 1426.6 521.503ZM1400.89 387.803C1413.04 384.654 1423.35 386.67 1431.83 393.848C1438.55 399.503 1443.1 407.01 1445.48 416.368C1449.47 432.021 1446.23 448.729 1435.77 466.488C1432.13 472.679 1430.97 479.083 1432.32 485.704C1432.71 487.923 1433.25 490.365 1433.92 493.028C1435.2 498.04 1432.21 503.147 1427.24 504.435L1422.56 505.647C1417.59 506.935 1412.53 503.914 1411.26 498.901C1407.62 484.62 1408.4 473.11 1413.59 464.367C1419.2 454.917 1422.39 445.875 1423.18 437.241C1423.61 432.228 1423.18 427.179 1421.88 422.095C1420.55 416.853 1418.34 413.037 1415.27 410.652C1411.82 407.849 1407.75 407.398 1403.03 409.307C1398.62 411.052 1396.15 415.09 1395.63 421.416C1395.6 421.725 1395.58 422.038 1395.55 422.355C1395.26 426.992 1391.61 430.697 1387.02 431.056L1382.52 431.408C1376.95 431.844 1372.24 427.248 1372.51 421.617C1372.78 416.022 1374.1 410.773 1376.46 405.87C1379.03 400.562 1383.35 396.089 1389.41 392.453C1392.58 390.514 1396.41 388.963 1400.89 387.803" fill="#AEDBED"/>
<path d="M1405.2 299.687L1407.79 299.018C1410.53 298.306 1413.33 299.974 1414.03 302.745L1414.72 305.422C1415.42 308.193 1413.77 311.017 1411.02 311.726L1408.43 312.398C1405.69 313.109 1402.89 311.44 1402.19 308.668L1401.51 305.992C1400.8 303.222 1402.45 300.399 1405.2 299.687ZM1390.99 225.786C1397.71 224.045 1403.41 225.159 1408.09 229.127C1411.81 232.253 1414.32 236.402 1415.64 241.575C1417.84 250.227 1416.05 259.462 1410.27 269.278C1408.26 272.702 1407.62 276.24 1408.36 279.899C1408.58 281.127 1408.88 282.475 1409.25 283.947C1409.96 286.718 1408.3 289.542 1405.56 290.253L1402.97 290.923C1400.22 291.634 1397.43 289.965 1396.72 287.195C1394.71 279.299 1395.14 272.938 1398.01 268.105C1401.11 262.881 1402.88 257.885 1403.31 253.111C1403.55 250.342 1403.31 247.55 1402.6 244.741C1401.86 241.842 1400.64 239.734 1398.94 238.415C1397.04 236.867 1394.78 236.617 1392.18 237.671C1389.74 238.637 1388.37 240.869 1388.09 244.365C1388.07 244.537 1388.05 244.71 1388.04 244.885C1387.88 247.448 1385.86 249.495 1383.33 249.693L1380.84 249.888C1377.76 250.128 1375.16 247.589 1375.31 244.475C1375.46 241.384 1376.18 238.482 1377.49 235.774C1378.91 232.838 1381.3 230.364 1384.65 228.356C1386.4 227.285 1388.51 226.426 1390.99 225.786" fill="#AEDBED"/>
<path d="M1058.29 345.769C1058.29 345.769 1073.25 272.16 1039.16 275.787L1006.57 344.264C1006.57 344.264 1028.41 353.3 1058.29 345.769Z" fill="#361710"/>
<path d="M982.333 345.769C982.333 345.769 974.039 286.078 999.77 270.931L1034.05 344.264C1034.05 344.264 1012.21 353.3 982.333 345.769Z" fill="#361710"/>
<path d="M929.518 329.262H933.485C937.699 329.262 941.115 332.71 941.115 336.96V341.067C941.115 345.32 937.699 348.766 933.485 348.766H929.518C925.305 348.766 921.89 345.32 921.89 341.067V336.96C921.89 332.71 925.305 329.262 929.518 329.262ZM936.131 217.578C946.437 217.578 954.235 221.308 959.526 228.766C963.73 234.652 965.832 241.564 965.832 249.502C965.832 262.779 959.873 275.405 947.959 287.381C943.803 291.555 941.592 296.414 941.32 301.958C941.183 303.805 941.115 305.856 941.115 308.116C941.115 312.369 937.699 315.815 933.485 315.815H929.518C925.305 315.815 921.89 312.369 921.89 308.116C921.89 296.003 924.84 287.006 930.739 281.12C937.113 274.754 941.486 268.219 943.861 261.512C945.216 257.612 945.895 253.506 945.895 249.194C945.895 244.746 944.912 241.257 942.945 238.725C940.775 235.784 937.621 234.583 933.485 235.131C929.62 235.61 926.839 238.314 925.145 243.241C925.057 243.48 924.973 243.723 924.893 243.972C923.717 247.6 920.064 249.795 916.34 249.136L912.689 248.487C908.168 247.684 905.354 243.058 906.709 238.633C908.054 234.237 910.166 230.333 913.039 226.918C916.159 223.224 920.499 220.555 926.061 218.913C928.976 218.024 932.331 217.578 936.131 217.578" fill="#FCC822"/>
<path d="M1024.44 631.655C1024.44 631.655 1022.55 639.017 1019.15 637.907C1012.8 635.838 1012.43 631.655 1012.43 631.655C1012.43 631.655 1008.43 643.838 1009.19 649.64C1009.95 655.441 1009.19 668.486 1009.19 668.486H1014.98C1014.98 668.486 1020.4 669.151 1022.65 672.448C1024.9 675.745 1037.21 674.767 1041.11 672.652C1046.11 669.943 1032.99 656.16 1028.35 648.479C1023.71 640.798 1024.44 631.655 1024.44 631.655Z" fill="#1C0906"/>
<path d="M1013.59 523.235C1017.59 513.255 1031.88 513.367 1035.4 523.528C1036.04 525.36 1036.5 527.277 1036.8 529.218C1038.28 538.747 1036.79 554.02 1032.89 573.527C1027.63 599.846 1024.79 652.348 1015.65 653.12C1006.51 653.893 1011.88 609.744 1011.69 583.639C1011.5 557.532 1007.43 538.603 1013.21 524.186L1013.59 523.235Z" fill="#CF9166"/>
<path d="M1018.85 598.543C1017.6 564.106 1019.87 538.56 1014.42 520.402L1014.07 519.208C1010.3 506.64 998.78 508.878 996.482 522.789C996.069 525.295 995.801 527.888 995.662 530.493C994.981 543.269 997.001 563.181 1001.2 588.321C1006.86 622.241 1008.24 653.44 1015.65 653.119C1023.06 652.799 1020.1 632.981 1018.85 598.543Z" fill="#EDAC7C"/>
<path d="M1008.5 637.711C1008.5 637.711 1010.11 650.717 1014.61 649.93C1019.03 649.156 1020.5 637.711 1020.5 637.711C1020.5 637.711 1024.5 649.892 1023.74 655.694C1023.31 658.963 1023.37 664.532 1023.49 668.772C1023.59 671.931 1021.08 674.54 1017.95 674.54C1017.95 674.54 1012.53 675.205 1010.28 678.502C1008.03 681.801 995.721 680.823 991.819 678.708C986.819 675.999 999.941 662.216 1004.58 654.535C1009.22 646.853 1008.5 637.711 1008.5 637.711Z" fill="#361710"/>
<path d="M1046.83 440.374L1017.82 435.073V434.869L1017.26 434.972L1016.7 434.869V435.073L987.694 440.374C987.694 440.374 977.436 455.792 979.444 473.93C981.45 492.066 990.702 590.157 990.702 590.157H1040.64C1040.64 590.157 1053.07 492.066 1055.08 473.93C1057.08 455.792 1046.83 440.374 1046.83 440.374Z" fill="#195172"/>
<path d="M1050.28 446.906C1048.45 442.821 1046.83 440.372 1046.83 440.372L1017.82 435.071V434.867L1017.26 434.97L1016.7 434.867V435.071L987.694 440.372C987.694 440.372 986.068 442.821 984.239 446.906H1050.28Z" fill="#0D435E"/>
<path d="M1023.5 590.156L1023.84 492.165L1032.15 590.156" fill="#0D435E"/>
<path d="M979.204 468.078C982.018 467.994 986.76 467.43 993.624 465.239C1005.66 461.4 1005.76 445.368 1005.76 445.368L1005.44 437.132L987.694 440.374C987.694 440.374 979.571 452.597 979.204 468.078Z" fill="#0D435E"/>
<path d="M1055.32 468.08C1054.95 452.597 1046.83 440.373 1046.83 440.373L1027.86 436.907L1027.38 445.367C1027.38 445.367 1027.48 461.398 1039.51 465.238C1047.67 467.842 1052.83 468.151 1055.32 468.08Z" fill="#0D435E"/>
<path d="M989.314 357.217L1009.92 348.765L1026.1 348.941L1051.37 359.578C1051.37 359.578 1038.19 405.271 1039.06 417.061C1039.93 428.852 1046.82 442.195 1046.82 442.195H989.314C989.314 442.195 999.611 421.171 997.351 408.769C995.089 396.365 989.314 357.217 989.314 357.217Z" fill="#5C93BC"/>
<path d="M1037.66 285.781C1030.67 272.577 993.703 267.901 986.906 309.412C981.949 339.664 1015.68 346.798 1032.77 341.258C1061.85 331.834 1044.66 298.985 1037.66 285.781Z" fill="#3E150D"/>
<path d="M1043.68 313.865C1043.68 313.865 1048.91 307.092 1053.72 311.541C1058.53 315.994 1051.66 329.71 1042.44 326.483L1043.68 313.865Z" fill="#EDAC7C"/>
<path d="M1043.21 318.646L1042.57 325.142C1050.54 326.586 1055.09 315.388 1051.42 313.835C1048.46 312.579 1044.78 316.508 1043.21 318.646Z" fill="#F7A588"/>
<path d="M1052.71 316.156C1052.71 316.156 1052.69 316.105 1052.67 316.012C1052.64 315.92 1052.6 315.788 1052.55 315.622C1052.43 315.3 1052.22 314.834 1051.83 314.5C1051.74 314.416 1051.62 314.348 1051.51 314.292C1051.44 314.266 1051.39 314.237 1051.32 314.215L1051.27 314.2L1051.27 314.198C1051.3 314.21 1051.28 314.201 1051.28 314.204L1051.28 314.201L1051.26 314.198L1051.23 314.191L1051.1 314.155C1051.01 314.128 1050.94 314.119 1050.87 314.108C1050.81 314.096 1050.74 314.085 1050.65 314.08C1050.58 314.076 1050.5 314.071 1050.42 314.073C1050.34 314.073 1050.26 314.069 1050.17 314.08C1049.52 314.126 1048.83 314.384 1048.17 314.741C1047.83 314.914 1047.51 315.124 1047.2 315.336C1046.89 315.55 1046.58 315.772 1046.29 315.996C1045.71 316.448 1045.18 316.904 1044.73 317.296C1043.82 318.107 1043.21 318.648 1043.21 318.648C1043.21 318.648 1043.29 318.456 1043.46 318.138C1043.63 317.822 1043.89 317.376 1044.26 316.876C1044.44 316.628 1044.64 316.356 1044.88 316.088C1045.11 315.818 1045.37 315.541 1045.65 315.27C1046.21 314.729 1046.88 314.195 1047.64 313.783C1048.03 313.579 1048.43 313.403 1048.86 313.283C1049.28 313.164 1049.73 313.099 1050.16 313.116C1050.27 313.118 1050.38 313.127 1050.49 313.142C1050.59 313.148 1050.7 313.173 1050.8 313.196C1050.9 313.216 1051.01 313.246 1051.11 313.282C1051.22 313.315 1051.32 313.349 1051.39 313.387L1051.51 313.444L1051.58 313.479L1051.65 313.516C1051.74 313.564 1051.82 313.62 1051.9 313.68C1052.06 313.803 1052.19 313.938 1052.3 314.08C1052.52 314.359 1052.62 314.66 1052.69 314.919C1052.75 315.176 1052.76 315.406 1052.76 315.587C1052.76 315.769 1052.74 315.915 1052.73 316.01C1052.72 316.107 1052.71 316.156 1052.71 316.156Z" fill="#CF9166"/>
<path d="M995.225 313.336C995.225 313.336 990.144 306.454 985.241 310.798C980.334 315.142 986.917 329.006 996.199 325.98L995.225 313.336Z" fill="#EDAC7C"/>
<path d="M995.594 318.13L996.095 324.639C988.098 325.911 983.791 314.615 987.489 313.142C990.477 311.953 994.074 315.958 995.594 318.13Z" fill="#F7A588"/>
<path d="M986.156 315.432C986.156 315.432 986.169 315.385 986.197 315.291C986.224 315.198 986.27 315.068 986.327 314.902C986.45 314.582 986.665 314.122 987.066 313.795C987.163 313.714 987.275 313.65 987.397 313.595C987.459 313.572 987.518 313.542 987.582 313.524L987.634 313.509L987.637 313.507C987.599 313.521 987.629 313.509 987.621 313.512H987.629L987.644 313.506L987.675 313.498L987.804 313.467C987.892 313.441 987.963 313.434 988.032 313.424C988.098 313.412 988.173 313.406 988.255 313.403C988.332 313.398 988.408 313.395 988.489 313.4C988.569 313.4 988.65 313.401 988.732 313.414C989.383 313.472 990.073 313.743 990.725 314.117C991.054 314.3 991.372 314.513 991.683 314.732C991.988 314.954 992.291 315.183 992.576 315.414C993.146 315.878 993.662 316.344 994.11 316.745C995.002 317.577 995.594 318.13 995.594 318.13C995.594 318.13 995.52 317.937 995.356 317.615C995.193 317.296 994.941 316.843 994.587 316.335C994.411 316.084 994.214 315.808 993.986 315.535C993.758 315.261 993.51 314.977 993.232 314.698C992.678 314.148 992.026 313.599 991.27 313.168C990.893 312.96 990.488 312.775 990.065 312.646C989.643 312.515 989.2 312.442 988.765 312.448C988.654 312.447 988.548 312.457 988.44 312.468C988.332 312.473 988.229 312.491 988.123 312.515C988.024 312.531 987.921 312.558 987.813 312.594C987.707 312.626 987.606 312.656 987.533 312.695L987.413 312.745L987.337 312.781L987.268 312.816C987.176 312.86 987.091 312.917 987.011 312.974C986.857 313.095 986.721 313.225 986.61 313.365C986.385 313.642 986.271 313.939 986.203 314.194C986.131 314.451 986.119 314.68 986.113 314.864C986.109 315.048 986.125 315.192 986.136 315.287C986.148 315.382 986.156 315.432 986.156 315.432Z" fill="#CF9166"/>
<path d="M1025.02 334.696L1011.9 334.55C1011.9 334.55 1011.17 355.275 1011.12 355.275C1011.12 355.275 1012.04 359.42 1017.86 359.575C1023.68 359.728 1025.16 355.426 1025.16 355.426C1025.12 355.312 1025.02 334.696 1025.02 334.696Z" fill="#EDAC7C"/>
<path d="M1025.16 342.324L1011.49 341.863C1011.49 341.863 1011.41 349.49 1011.36 349.49C1011.36 349.49 1012.1 354.337 1017.92 354.492C1023.74 354.645 1025.1 350.192 1025.1 350.192C1025.06 350.077 1025.16 342.324 1025.16 342.324Z" fill="#CF9166"/>
<path d="M1024.98 338.507L1011.86 338.363C1011.86 338.363 1011.66 341.008 1011.49 343.26C1011.46 343.585 1015.22 344.203 1015.63 344.272C1018.84 344.821 1022 344.439 1025.14 343.669C1025.06 341.364 1024.98 338.507 1024.98 338.507Z" fill="#CF9166"/>
<path d="M1050.37 308.471C1050.2 324.979 1035.86 338.209 1018.35 338.019C1000.84 337.829 986.793 324.29 986.968 307.781C987.144 291.27 1001.48 278.04 1018.99 278.23C1036.5 278.422 1050.55 291.959 1050.37 308.471Z" fill="#3E150D"/>
<path d="M1047.01 308.028C1046.79 298.828 1042.96 290.102 1033.99 286.434C1029.43 284.567 1024.41 284.029 1019.51 284.055C1014.67 284.083 1009.51 284.343 1004.94 286.063C996.755 289.149 994.533 284.113 993.614 292.506C993.523 293.327 992.442 296.842 991.333 307.423C991.134 309.308 991.082 311.181 991.131 313.085C991.243 317.362 991.871 321.657 993.21 325.731C994.833 330.674 997.582 335.276 1001.62 338.656C1003.91 340.578 1006.55 342.058 1009.36 343.095C1014 344.801 1018.43 345.397 1023.32 344.545C1026.62 343.968 1029.85 342.914 1032.77 341.26C1037.61 338.516 1041.26 334.209 1043.56 329.209C1045.5 325.001 1046.53 320.412 1046.94 315.818C1047.17 313.303 1047.24 310.745 1047.03 308.229C1047.02 308.162 1047.01 308.096 1047.01 308.028Z" fill="#EDAC7C"/>
<path d="M1027.64 316.73C1027.51 319.342 1029.34 321.554 1031.71 321.672C1034.09 321.79 1036.12 319.765 1036.25 317.152C1036.38 314.54 1034.56 312.328 1032.18 312.211C1029.8 312.093 1027.77 314.118 1027.64 316.73Z" fill="#CF9166"/>
<path d="M1027.69 315.625C1027.56 318.238 1029.39 320.449 1031.77 320.568C1034.15 320.686 1036.18 318.661 1036.31 316.049C1036.44 313.437 1034.61 311.223 1032.23 311.106C1029.86 310.991 1027.82 313.013 1027.69 315.625Z" fill="black"/>
<path d="M1029.24 314.417C1029.19 315.363 1029.93 316.169 1030.88 316.215C1031.83 316.263 1032.64 315.534 1032.69 314.587C1032.74 313.641 1032 312.838 1031.05 312.791C1030.1 312.742 1029.28 313.471 1029.24 314.417Z" fill="white"/>
<path d="M1001.96 315.71C1001.83 318.322 1003.65 320.534 1006.03 320.652C1008.41 320.77 1010.44 318.743 1010.57 316.133C1010.7 313.521 1008.88 311.308 1006.5 311.191C1004.12 311.076 1002.09 313.096 1001.96 315.71Z" fill="#CF9166"/>
<path d="M1002.02 314.605C1001.89 317.218 1003.71 319.429 1006.09 319.548C1008.47 319.665 1010.5 317.643 1010.63 315.028C1010.76 312.418 1008.93 310.203 1006.56 310.088C1004.18 309.971 1002.14 311.994 1002.02 314.605Z" fill="black"/>
<path d="M1003.56 313.397C1003.51 314.342 1004.24 315.149 1005.2 315.195C1006.15 315.242 1006.97 314.514 1007.01 313.565C1007.06 312.619 1006.32 311.815 1005.37 311.769C1004.42 311.721 1003.6 312.449 1003.56 313.397Z" fill="white"/>
<path d="M1017.13 312.83C1017.13 312.83 1017.77 318.581 1015.08 318.103C1009.89 317.186 1009.87 328.42 1017.72 324.237C1020.68 322.66 1019.7 312.908 1019.7 312.908L1017.13 312.83Z" fill="#F48470"/>
<path d="M1011.63 329.296C1011.63 329.296 1022.08 331.051 1027.05 325.007C1027.05 325.007 1031.22 336.298 1020 337.748C1012.91 338.658 1011.63 329.296 1011.63 329.296Z" fill="#B43128"/>
<path d="M1015.18 336.417C1016.37 337.405 1017.94 338.011 1020 337.747C1022.55 337.416 1024.3 336.581 1025.49 335.489C1025.83 335.16 1026.14 334.807 1026.41 334.441C1026.42 334.433 1026.43 334.424 1026.43 334.416C1026.44 334.41 1026.44 334.407 1026.44 334.404C1027.29 333.182 1027.66 331.783 1027.77 330.443C1021.47 328.779 1016.94 333.754 1015.18 336.417Z" fill="#F05736"/>
<path d="M1011.63 329.296C1011.63 329.296 1011.64 329.378 1011.67 329.52C1012.68 329.732 1014.57 331.963 1017.1 331.875C1018.71 331.821 1020.28 331.373 1021.72 330.688C1022.62 330.264 1023.54 329.854 1024.32 329.227C1024.91 328.749 1025.34 327.331 1025.59 326.455C1020.29 330.748 1011.63 329.296 1011.63 329.296Z" fill="white"/>
<path d="M1012.33 329.959C1012.78 332.072 1014.53 337.883 1019.93 337.185C1022.92 336.802 1025.03 335.649 1026.18 333.767C1027.77 331.167 1027.2 327.757 1026.79 326.135C1022.3 330.629 1014.79 330.231 1012.33 329.959ZM1018.96 338.37C1012.37 338.3 1011.08 329.469 1011.07 329.372C1011.04 329.198 1011.11 329.018 1011.24 328.894C1011.37 328.77 1011.55 328.712 1011.73 328.742C1011.83 328.758 1021.92 330.369 1026.61 324.651C1026.74 324.496 1026.94 324.417 1027.14 324.452C1027.35 324.486 1027.51 324.624 1027.58 324.815C1027.67 325.038 1029.59 330.364 1027.16 334.348C1025.81 336.538 1023.43 337.873 1020.08 338.304C1019.69 338.355 1019.32 338.375 1018.96 338.37Z" fill="#F05B4E"/>
<path d="M1007.56 328.68C1007.54 331.091 1005.55 333.024 1003.12 332.997C1000.69 332.97 998.736 330.995 998.76 328.584C998.787 326.172 1000.78 324.241 1003.21 324.266C1005.64 324.295 1007.59 326.269 1007.56 328.68Z" fill="#F49B77"/>
<path d="M1039.16 326.217C1039.13 328.628 1037.14 330.562 1034.71 330.535C1032.28 330.509 1030.33 328.535 1030.36 326.122C1030.38 323.712 1032.37 321.779 1034.8 321.805C1037.23 321.833 1039.19 323.809 1039.16 326.217Z" fill="#F49B77"/>
<path d="M998.997 303.78C998.997 303.78 999.094 303.599 999.322 303.319C999.437 303.184 999.577 303.007 999.759 302.839C999.935 302.659 1000.15 302.472 1000.39 302.279C1000.63 302.088 1000.91 301.895 1001.21 301.708C1001.52 301.528 1001.84 301.335 1002.2 301.183C1002.55 301.01 1002.93 300.877 1003.32 300.746C1003.71 300.612 1004.12 300.536 1004.52 300.431C1004.93 300.366 1005.34 300.303 1005.75 300.264C1006.15 300.241 1006.55 300.23 1006.94 300.231C1007.33 300.253 1007.7 300.287 1008.05 300.32C1008.4 300.362 1008.73 300.443 1009.03 300.503C1009.33 300.572 1009.6 300.63 1009.83 300.722C1010.07 300.803 1010.27 300.883 1010.44 300.947C1010.77 301.076 1010.96 301.168 1010.96 301.168C1010.96 301.168 1010.75 301.197 1010.39 301.222C1010.22 301.235 1010 301.254 1009.76 301.26C1009.53 301.261 1009.25 301.294 1008.96 301.318C1008.67 301.344 1008.35 301.344 1008.02 301.381C1007.69 301.418 1007.35 301.452 1006.99 301.478C1006.64 301.525 1006.28 301.58 1005.9 301.622C1005.54 301.685 1005.17 301.747 1004.8 301.813C1004.61 301.853 1004.43 301.896 1004.25 301.934C1004.06 301.974 1003.88 302.005 1003.7 302.059C1003.52 302.108 1003.34 302.152 1003.17 302.195C1002.99 302.235 1002.83 302.301 1002.65 302.347C1002.31 302.44 1001.99 302.555 1001.67 302.658C1001.52 302.705 1001.37 302.773 1001.23 302.822C1001.08 302.876 1000.94 302.922 1000.8 302.981C1000.54 303.087 1000.29 303.187 1000.07 303.283C999.846 303.374 999.659 303.467 999.495 303.538C999.345 303.616 999.211 303.668 999.13 303.714C999.042 303.757 998.997 303.78 998.997 303.78Z" fill="black"/>
<path d="M1036.45 310.091C1036.45 310.091 1036.33 309.924 1036.07 309.675C1035.93 309.557 1035.78 309.399 1035.58 309.252C1035.38 309.1 1035.14 308.943 1034.88 308.782C1034.61 308.622 1034.32 308.467 1033.99 308.322C1033.66 308.182 1033.32 308.034 1032.94 307.931C1032.57 307.804 1032.18 307.719 1031.78 307.64C1031.38 307.555 1030.96 307.534 1030.55 307.485C1030.13 307.471 1029.72 307.462 1029.31 307.476C1028.9 307.505 1028.5 307.546 1028.12 307.597C1027.74 307.669 1027.38 307.75 1027.03 307.828C1026.69 307.914 1026.38 308.038 1026.09 308.138C1025.8 308.244 1025.54 308.337 1025.32 308.457C1025.09 308.569 1024.9 308.674 1024.74 308.76C1024.43 308.932 1024.26 309.044 1024.26 309.044C1024.26 309.044 1024.47 309.048 1024.82 309.028C1025 309.018 1025.21 309.007 1025.45 308.984C1025.69 308.955 1025.96 308.95 1026.26 308.935C1026.55 308.924 1026.86 308.884 1027.2 308.877C1027.53 308.871 1027.87 308.861 1028.23 308.841C1028.59 308.845 1028.96 308.851 1029.33 308.841C1029.7 308.855 1030.07 308.874 1030.45 308.889C1030.64 308.906 1030.82 308.921 1031.01 308.936C1031.2 308.953 1031.38 308.959 1031.57 308.992C1031.75 309.019 1031.93 309.038 1032.11 309.058C1032.29 309.074 1032.47 309.117 1032.64 309.142C1033 309.189 1033.33 309.263 1033.65 309.324C1033.82 309.349 1033.97 309.398 1034.12 309.427C1034.27 309.462 1034.42 309.49 1034.56 309.53C1034.84 309.603 1035.1 309.668 1035.32 309.735C1035.56 309.798 1035.75 309.865 1035.92 309.914C1036.08 309.973 1036.22 310.006 1036.31 310.042C1036.4 310.072 1036.45 310.091 1036.45 310.091Z" fill="black"/>
<path d="M1046.63 321.756C1046.63 321.756 1047.32 320.47 1048.64 318.018C1053.56 308.832 1055.64 298.053 1052.98 287.961C1051.55 282.535 1048.61 279.895 1046.22 278.615C1043.77 277.306 1032.61 270.197 1025.92 268.145C1013.83 264.44 1000.96 268.296 991.916 274.633C982.872 280.97 971.075 301.73 980.857 301.943C990.638 302.158 1005.51 288.271 1001.09 291.85C994.764 296.975 1000.95 297.518 1015.11 298.007C1029.26 298.494 1037.65 293.525 1037.65 293.525C1037.65 293.525 1037.12 297.897 1039.21 304.373C1041.29 310.85 1047.07 318.228 1047.07 318.228" fill="#361710"/>
<path d="M1002.32 351.886L1005.76 440.162C1005.76 440.162 1005.66 456.194 993.624 460.035C981.589 463.877 976.053 462.724 976.053 462.724C976.053 462.724 989.134 405.823 986.51 393.08C983.887 380.338 979.868 359.979 979.868 359.979L1002.32 351.886Z" fill="#122738"/>
<path d="M1032.45 351.65L1027.38 440.162C1027.38 440.162 1027.48 456.194 1039.51 460.035C1051.55 463.877 1057.08 462.724 1057.08 462.724C1057.08 462.724 1044 405.823 1046.62 393.08C1049.25 380.338 1053.27 359.981 1053.27 359.981L1032.45 351.65Z" fill="#122738"/>
<path d="M1066.78 376.927C1066.78 376.927 1091.06 405.94 1091.1 415.068C1091.15 424.198 1078.41 421.316 1078.41 421.316L1055.4 388.167L1066.78 376.927Z" fill="#EDAC7C"/>
<path d="M1066.78 376.927L1055.4 388.167L1064.54 401.345C1064.54 401.345 1069.97 393.179 1079.8 393.794C1073.45 384.896 1066.78 376.927 1066.78 376.927Z" fill="#CF9166"/>
<path d="M978.47 379.684C978.47 379.684 946.031 398.933 937.109 397.433C928.185 395.933 933.152 383.751 933.152 383.751L969.418 366.464L978.47 379.684Z" fill="#EDAC7C"/>
<path d="M951.587 393.585C963.888 388.333 978.47 379.685 978.47 379.685L969.417 366.465L951.578 374.967C951.578 374.967 958.193 389.483 951.587 393.585" fill="#CF9166"/>
<path d="M1085.62 421.488C1085.68 421.451 1085.75 421.411 1085.81 421.371C1088.37 419.812 1090.25 417.294 1091.53 414.572C1094.27 408.781 1095.71 402.072 1097.79 395.995C1099.41 391.262 1100.88 386.158 1102.87 381.395C1102.56 381.256 1102.28 381.077 1102.02 380.836C1099.5 378.452 1098.26 376.835 1095.36 374.941C1094.52 382.254 1084.35 396.612 1080.11 408.022C1079.27 410.277 1078.54 412.611 1078.46 415.018C1078.3 419.544 1080.74 424.333 1085.62 421.488Z" fill="#EEC9B1"/>
<path d="M1080.22 423.37C1081.49 424.136 1083.6 424.699 1086.49 423.014L1086.72 422.879C1089.31 421.293 1091.52 418.681 1093.11 415.33C1094.96 411.411 1096.23 407.106 1097.46 402.943C1098.09 400.822 1098.74 398.628 1099.44 396.571C1099.94 395.127 1100.42 393.648 1100.9 392.157C1101.99 388.8 1103.12 385.331 1104.48 382.077L1105.13 380.495L1103.58 379.789C1103.43 379.72 1103.31 379.643 1103.22 379.551C1102.55 378.919 1101.97 378.342 1101.43 377.801C1099.9 376.268 1098.57 374.943 1096.3 373.461L1093.94 371.921L1093.62 374.739C1093.19 378.503 1089.84 384.717 1086.3 391.297C1083.39 396.697 1080.38 402.28 1078.47 407.404C1077.65 409.605 1076.8 412.225 1076.71 414.958C1076.59 418.699 1077.96 421.999 1080.22 423.37Z" fill="#EDAC7C"/>
<path d="M1101.08 376.516C1101.09 376.505 1103.01 370.632 1103.76 370.403C1104.5 370.175 1105.82 370.708 1105.82 370.708L1103.59 379.131C1103.59 379.131 1106.7 372.08 1107.91 371.475C1109.13 370.868 1110.48 371.508 1110.48 371.508L1106.77 381.206C1106.77 381.206 1108.97 374.201 1110.26 373.099C1111.56 372 1113.09 372.468 1113.09 372.468L1109.97 382.926L1109.68 381.603C1109.68 381.603 1111.82 377.899 1113.13 377.617C1114.44 377.331 1115.7 377.65 1115.7 377.65C1115.7 377.65 1113.35 381.419 1112.33 383.841C1111.32 386.263 1109.48 386.711 1109.48 386.711C1105.35 385.435 1101.83 382.325 1098.44 379.667C1095.81 377.61 1093.94 371.919 1093.94 371.919C1093.94 371.919 1097.5 368.596 1101.08 376.516" fill="#EDAC7C"/>
<path d="M934.032 393.793C933.984 393.735 933.935 393.676 933.888 393.617C932.015 391.271 931.099 388.258 930.811 385.255C930.199 378.871 931.107 372.065 931.206 365.637C931.283 360.63 931.628 355.325 931.374 350.166C931.706 350.14 932.037 350.069 932.356 349.931C935.533 348.558 937.246 347.467 940.617 346.686C938.926 353.846 943.63 370.844 943.764 383.031C943.79 385.441 943.687 387.885 942.95 390.177C941.563 394.484 937.652 398.148 934.032 393.793Z" fill="#EEC9B1"/>
<path d="M938.464 397.419C937.015 397.704 934.848 397.509 932.696 394.927L932.529 394.721C930.622 392.336 929.428 389.122 929.073 385.425C928.658 381.104 928.918 376.62 929.169 372.284C929.296 370.073 929.428 367.788 929.462 365.61C929.485 364.083 929.533 362.527 929.582 360.959C929.691 357.428 929.804 353.778 929.632 350.253L929.547 348.539L931.242 348.409C931.408 348.398 931.546 348.366 931.669 348.312C932.512 347.95 933.247 347.605 933.941 347.282C935.899 346.368 937.59 345.581 940.226 344.969L942.966 344.333L942.316 347.095C941.445 350.778 942.493 357.774 943.6 365.179C944.51 371.257 945.45 377.541 945.511 383.015C945.536 385.366 945.45 388.119 944.611 390.721C943.465 394.281 941.053 396.91 938.464 397.419Z" fill="#EDAC7C"/>
<path d="M934.7 346.196C934.7 346.184 934.876 339.999 934.255 339.528C933.631 339.058 932.207 339.102 932.207 339.102L931.456 347.789C931.456 347.789 930.919 340.091 929.984 339.104C929.05 338.116 927.56 338.251 927.56 338.251L927.765 348.644C927.765 348.644 928.073 341.305 927.227 339.824C926.381 338.343 924.78 338.253 924.78 338.253L924.185 349.162L924.895 348.015C924.895 348.015 924.137 343.799 923.003 343.08C921.868 342.362 920.579 342.228 920.579 342.228C920.579 342.228 921.514 346.582 921.649 349.208C921.785 351.834 923.363 352.887 923.363 352.887C927.675 353.111 932.034 351.398 936.123 350.066C939.284 349.038 942.966 344.332 942.966 344.332C942.966 344.332 940.745 339.983 934.7 346.196Z" fill="#EDAC7C"/>
<path d="M1053.27 359.978C1053.27 359.978 1073.04 375.927 1077.75 385.264L1056.97 400.405L1041.24 376.928L1053.27 359.978Z" fill="#122738"/>
<path d="M979.871 359.978C979.871 359.978 962.867 368.387 952.708 373.829L961.87 396.461L990.906 385.657L979.871 359.978Z" fill="#122738"/>
<path d="M1019.5 671.511C1016.69 672.104 1012.35 670.447 1009.09 675.533C1005.95 680.435 998.577 680.359 998.045 680.348C1002.97 680.986 1008.8 680.673 1010.28 678.504C1012.53 675.205 1017.95 674.542 1017.95 674.542C1021.08 674.542 1023.59 671.931 1023.49 668.772C1023.49 668.588 1023.48 668.387 1023.48 668.197C1022.47 669.598 1021.02 671.192 1019.5 671.511Z" fill="#1C0906"/>
<path d="M1317.22 277.893L1319.56 278.73C1322.04 279.618 1323.34 282.371 1322.46 284.878L1321.61 287.3C1320.73 289.807 1318 291.12 1315.52 290.231L1313.18 289.396C1310.7 288.507 1309.4 285.754 1310.28 283.246L1311.13 280.826C1312 278.318 1314.73 277.006 1317.22 277.893ZM1344.23 213.429C1350.31 215.601 1354.14 219.446 1355.71 224.959C1356.97 229.317 1356.78 233.836 1355.14 238.517C1352.39 246.345 1346.27 252.535 1336.76 257.084C1333.45 258.67 1331.14 261.068 1329.83 264.28C1329.37 265.341 1328.9 266.537 1328.43 267.869C1327.55 270.377 1324.82 271.689 1322.34 270.801L1320 269.964C1317.52 269.077 1316.22 266.324 1317.1 263.816C1319.6 256.673 1323.21 251.99 1327.9 249.762C1332.98 247.352 1336.91 244.421 1339.7 240.966C1341.3 238.952 1342.56 236.673 1343.45 234.132C1344.37 231.509 1344.51 229.243 1343.88 227.337C1343.2 225.143 1341.59 223.771 1339.04 223.222C1336.66 222.691 1334.46 223.699 1332.44 226.247C1332.34 226.369 1332.24 226.495 1332.14 226.625C1330.7 228.515 1328.09 229.041 1326.03 227.865L1324.01 226.714C1321.51 225.289 1320.81 221.967 1322.53 219.643C1324.23 217.335 1326.28 215.477 1328.68 214.07C1331.29 212.548 1334.4 211.889 1338.02 212.093C1339.92 212.185 1341.99 212.629 1344.23 213.429Z" fill="#FCC822"/>
<path d="M1153.83 285.017L1157.25 285.691C1160.88 286.408 1163.25 289.963 1162.54 293.627L1161.85 297.167C1161.14 300.832 1157.62 303.222 1153.99 302.505L1150.57 301.83C1146.93 301.113 1144.57 297.56 1145.28 293.895L1145.96 290.354C1146.67 286.689 1150.19 284.298 1153.83 285.017ZM1178.2 189.861C1187.08 191.616 1193.18 196.159 1196.5 203.489C1199.14 209.28 1199.79 215.597 1198.47 222.439C1196.25 233.887 1189 243.755 1176.73 252.05C1172.45 254.943 1169.73 258.753 1168.56 263.485C1168.14 265.056 1167.74 266.814 1167.36 268.761C1166.65 272.426 1163.13 274.817 1159.49 274.098L1156.07 273.424C1152.44 272.707 1150.07 269.154 1150.78 265.489C1152.81 255.046 1156.86 247.791 1162.93 243.721C1169.49 239.32 1174.35 234.431 1177.52 229.052C1179.34 225.92 1180.61 222.496 1181.33 218.779C1182.07 214.945 1181.81 211.769 1180.54 209.251C1179.16 206.346 1176.64 204.775 1172.98 204.544C1169.57 204.299 1166.72 206.155 1164.44 210.114C1164.32 210.306 1164.21 210.502 1164.1 210.703C1162.48 213.629 1158.96 214.9 1155.86 213.696L1152.82 212.516C1149.06 211.055 1147.4 206.587 1149.31 203.003C1151.21 199.443 1153.68 196.435 1156.73 193.983C1160.04 191.328 1164.22 189.766 1169.29 189.297C1171.95 189.027 1174.92 189.214 1178.2 189.861" fill="#FCC822"/>
<path d="M1098.68 346.303L1101.09 345.681C1103.64 345.019 1106.24 346.572 1106.9 349.147L1107.53 351.636C1108.19 354.211 1106.65 356.837 1104.09 357.498L1101.69 358.121C1099.14 358.782 1096.54 357.231 1095.88 354.653L1095.25 352.165C1094.59 349.59 1096.13 346.966 1098.68 346.303ZM1085.47 277.592C1091.72 275.973 1097.02 277.009 1101.37 280.697C1104.83 283.605 1107.17 287.462 1108.39 292.273C1110.44 300.317 1108.77 308.904 1103.4 318.031C1101.53 321.213 1100.93 324.504 1101.62 327.905C1101.83 329.045 1102.1 330.301 1102.45 331.67C1103.11 334.246 1101.57 336.871 1099.01 337.531L1096.61 338.155C1094.06 338.816 1091.46 337.264 1090.8 334.688C1088.93 327.349 1089.33 321.432 1092 316.941C1094.88 312.083 1096.52 307.437 1096.93 303C1097.15 300.423 1096.93 297.828 1096.26 295.216C1095.58 292.522 1094.44 290.561 1092.86 289.335C1091.09 287.894 1089 287.662 1086.57 288.643C1084.31 289.542 1083.04 291.616 1082.77 294.867C1082.76 295.026 1082.74 295.186 1082.73 295.35C1082.58 297.733 1080.7 299.637 1078.34 299.821L1076.03 300.002C1073.17 300.224 1070.75 297.863 1070.89 294.969C1071.03 292.095 1071.7 289.398 1072.92 286.878C1074.24 284.149 1076.46 281.85 1079.57 279.982C1081.2 278.985 1083.17 278.188 1085.47 277.592" fill="#FCC822"/>
<path d="M1466.73 346.631L1469.13 346.008C1471.68 345.346 1474.29 346.899 1474.94 349.474L1475.57 351.963C1476.23 354.54 1474.69 357.164 1472.14 357.826L1469.73 358.449C1467.18 359.111 1464.58 357.558 1463.93 354.981L1463.29 352.494C1462.64 349.919 1464.17 347.293 1466.73 346.631ZM1453.52 277.921C1459.76 276.302 1465.06 277.338 1469.42 281.026C1472.87 283.934 1475.21 287.79 1476.43 292.6C1478.48 300.646 1476.82 309.233 1471.44 318.359C1469.57 321.542 1468.98 324.831 1469.67 328.234C1469.87 329.374 1470.15 330.63 1470.49 331.997C1471.15 334.574 1469.61 337.199 1467.06 337.86L1464.65 338.484C1462.1 339.144 1459.5 337.593 1458.85 335.017C1456.98 327.677 1457.38 321.761 1460.05 317.268C1462.93 312.412 1464.57 307.766 1464.97 303.327C1465.19 300.75 1464.97 298.157 1464.31 295.545C1463.62 292.849 1462.49 290.89 1460.9 289.664C1459.14 288.223 1457.04 287.991 1454.62 288.972C1452.35 289.869 1451.08 291.943 1450.81 295.195C1450.8 295.353 1450.79 295.514 1450.78 295.678C1450.62 298.06 1448.75 299.966 1446.39 300.15L1444.08 300.33C1441.22 300.553 1438.8 298.191 1438.93 295.298C1439.07 292.423 1439.75 289.725 1440.96 287.205C1442.28 284.476 1444.5 282.179 1447.62 280.31C1449.25 279.314 1451.21 278.517 1453.52 277.921" fill="#FCC822"/>
<path d="M1194.5 437.665L1204.63 394.486L1186.2 393.784L1176.52 433.643C1175.84 436.456 1176 439.41 1176.98 442.13L1194.59 491.029L1215.68 488.975L1194.5 437.665Z" fill="#A7A6BB"/>
<path d="M1186.17 431.901C1188.04 428.089 1189.87 424.681 1191.64 421.677C1194.08 417.27 1197.18 413.532 1200.89 410.429L1204.63 394.486L1186.2 393.784L1176.52 433.644C1176.05 435.609 1176.01 437.638 1176.34 439.614C1180.46 438.707 1184.14 436.004 1186.17 431.901Z" fill="#727293"/>
<path d="M1212.45 580.112L1212 582.21L1209.64 593.239L1199.22 642.053L1198.08 647.357L1197.83 648.552L1195.73 671.736L1193.26 672.49C1186.99 674.412 1180.59 673.997 1175 671.682C1172.71 670.735 1170.37 668.428 1168.75 666.595C1166.91 664.518 1165.42 662.133 1164.26 659.602C1160.95 652.326 1160.18 644.038 1160.01 636.126C1159.95 633.451 1159.96 630.776 1159.96 628.1V601.87V578.936V570.604C1161.88 570.604 1164.03 570.362 1165.56 570.256C1166.95 570.165 1169.43 569.698 1170.86 569.698C1176.44 567.764 1182.21 568.292 1187.6 567.63C1190.16 567.316 1192.64 567.166 1194.97 567.069C1198.22 566.937 1201.19 567.134 1203.73 567.768C1209.05 569.105 1212.45 572.63 1212.45 580.112Z" fill="#1C1B2D"/>
<path d="M1254.28 652.891L1198.81 670.797L1195.73 671.737L1193.26 672.49C1186.99 674.412 1180.59 673.998 1175 671.683C1173.54 670.857 1172.16 669.893 1170.89 668.812C1170.88 668.806 1170.88 668.797 1170.87 668.788C1166.57 664.786 1163.57 659.375 1162.53 653.277L1194.63 643.455L1199.22 642.054L1246.91 628.369L1254.28 652.891Z" fill="#1C1B2D"/>
<path d="M1283.65 656.929C1282.94 653.807 1281.69 649.941 1281.42 648.721C1280.36 644.041 1278.79 639.472 1277.46 634.867C1276.97 633.181 1276.37 632.016 1276.17 631.649C1276.07 631.478 1276.08 631.488 1276.17 631.649C1276.32 631.894 1276.71 632.499 1277.47 633.551C1276.08 631.629 1274.96 629.818 1274.04 627.637C1273 625.175 1272.2 622.711 1271.6 620.257L1237.3 630.591L1245.07 656.834L1261.16 651.986C1262.15 651.687 1263.2 652.256 1263.49 653.257L1265.15 658.856C1265.66 660.59 1266.4 662.19 1267.29 663.668C1268.23 663.34 1269.18 663.065 1270.15 662.854C1274.4 661.929 1278.46 660.41 1282.53 658.94C1282.87 658.257 1283.24 657.584 1283.65 656.929Z" fill="#361710"/>
<path d="M1252.05 634.637C1255.06 633.728 1258.24 635.458 1259.14 638.499C1260.04 641.541 1258.32 644.743 1255.31 645.652C1252.3 646.559 1249.12 644.83 1248.22 641.789C1247.32 638.748 1249.04 635.546 1252.05 634.637Z" fill="white"/>
<path d="M1265.3 659.315C1268.7 669.911 1279.88 675.881 1290.51 672.678C1291.5 672.377 1292.06 671.324 1291.77 670.323L1286.61 652.892L1265.3 659.315Z" fill="white"/>
<path d="M1283.56 673.509C1285.85 673.635 1288.19 673.376 1290.51 672.677C1291.5 672.378 1292.07 671.323 1291.77 670.322L1277.05 620.59C1276.76 619.588 1275.71 619.018 1274.72 619.318L1268.11 621.306L1283.56 673.509Z" fill="white"/>
<path d="M1253.7 496.009L1250.71 502.188L1235.05 534.565L1209.27 587.858L1160.64 567.984L1175.53 533.817L1186.21 509.324L1202.56 471.802L1253.7 496.009Z" fill="#A7A6BB"/>
<path d="M1244.98 506.623C1244.43 506.623 1243.41 505.872 1242.18 504.822C1239.5 519.016 1225.73 530.138 1211.43 530.138C1199.26 530.138 1189.29 523.138 1184.1 513.135L1173.37 538.785L1184.74 556.264C1187.15 559.873 1191.87 561.084 1195.7 559.072L1232.89 539.534L1248.55 507.158C1247.4 506.806 1246.19 506.623 1244.98 506.623Z" fill="#727293"/>
<path d="M1229.07 514.415C1226.26 514.415 1223.58 514.004 1221.03 513.305L1189.82 577.817L1161.41 566.207L1160.64 567.984L1209.27 587.86L1248.07 507.657C1242.63 511.864 1235.91 514.415 1229.07 514.415Z" fill="#727293"/>
<path d="M1263.11 452.9C1263.11 452.9 1270.66 448.464 1273.56 454.562C1276.45 460.659 1264.7 471.073 1257.15 464.444L1263.11 452.9Z" fill="#EDAC7C"/>
<path d="M1260.85 457.275L1257.78 463.218C1264.82 467.669 1273.4 458.755 1270.5 455.861C1268.15 453.52 1263.16 455.844 1260.85 457.275Z" fill="#F7A588"/>
<path d="M1270.84 458.566C1270.84 458.566 1270.85 458.512 1270.86 458.413C1270.87 458.315 1270.88 458.172 1270.89 457.996C1270.9 457.643 1270.88 457.121 1270.64 456.652C1270.58 456.534 1270.49 456.426 1270.4 456.327C1270.36 456.278 1270.31 456.228 1270.25 456.179L1270.22 456.147L1270.21 456.144C1270.24 456.172 1270.22 456.152 1270.22 456.156L1270.22 456.152L1270.2 456.141L1270.18 456.121L1270.07 456.041C1270 455.98 1269.93 455.943 1269.87 455.908C1269.81 455.87 1269.75 455.833 1269.67 455.796C1269.6 455.761 1269.53 455.724 1269.45 455.698C1269.37 455.664 1269.3 455.631 1269.21 455.609C1268.57 455.402 1267.82 455.381 1267.05 455.467C1266.67 455.502 1266.28 455.579 1265.9 455.658C1265.52 455.743 1265.15 455.836 1264.79 455.937C1264.06 456.144 1263.39 456.374 1262.81 456.572C1261.63 456.995 1260.85 457.275 1260.85 457.275C1260.85 457.275 1261 457.125 1261.28 456.886C1261.57 456.652 1261.98 456.328 1262.52 455.991C1262.79 455.825 1263.08 455.644 1263.4 455.479C1263.73 455.312 1264.08 455.148 1264.45 454.998C1265.2 454.702 1266.03 454.447 1266.92 454.351C1267.36 454.306 1267.81 454.293 1268.26 454.343C1268.71 454.392 1269.16 454.506 1269.57 454.688C1269.67 454.731 1269.77 454.782 1269.87 454.837C1269.97 454.886 1270.06 454.949 1270.15 455.01C1270.24 455.068 1270.32 455.136 1270.41 455.211C1270.5 455.284 1270.58 455.355 1270.63 455.418L1270.73 455.52L1270.78 455.582L1270.84 455.644C1270.9 455.724 1270.96 455.809 1271.01 455.896C1271.11 456.072 1271.19 456.251 1271.24 456.428C1271.34 456.78 1271.33 457.108 1271.29 457.38C1271.26 457.649 1271.18 457.872 1271.11 458.045C1271.04 458.218 1270.97 458.348 1270.92 458.436C1270.87 458.522 1270.84 458.566 1270.84 458.566Z" fill="#CF9166"/>
<path d="M1217.14 433.699C1217.14 433.699 1214.91 425.18 1208.59 427.427C1202.27 429.672 1203.29 445.422 1213.28 446.122L1217.14 433.699Z" fill="#EDAC7C"/>
<path d="M1215.68 438.407L1213.69 444.801C1205.59 442.928 1205.76 430.504 1209.84 430.527C1213.14 430.546 1215.05 435.752 1215.68 438.407Z" fill="#F7A588"/>
<path d="M1207.7 432.194C1207.7 432.194 1207.74 432.154 1207.8 432.076C1207.86 431.996 1207.95 431.89 1208.07 431.757C1208.31 431.498 1208.69 431.141 1209.19 430.986C1209.31 430.948 1209.45 430.929 1209.59 430.923C1209.65 430.925 1209.72 430.918 1209.79 430.928L1209.84 430.932H1209.84C1209.8 430.931 1209.84 430.931 1209.83 430.931L1209.84 430.932L1209.85 430.934L1209.89 430.938L1210.02 430.958C1210.11 430.967 1210.19 430.989 1210.25 431.006C1210.32 431.018 1210.39 431.041 1210.47 431.072C1210.55 431.095 1210.62 431.124 1210.7 431.158C1210.77 431.19 1210.85 431.22 1210.92 431.265C1211.52 431.571 1212.08 432.099 1212.56 432.704C1212.8 433.005 1213.02 433.331 1213.24 433.661C1213.44 433.99 1213.65 434.324 1213.83 434.654C1214.2 435.318 1214.51 435.96 1214.79 436.515C1215.32 437.652 1215.68 438.408 1215.68 438.408C1215.68 438.408 1215.68 438.193 1215.64 437.825C1215.61 437.459 1215.54 436.929 1215.4 436.309C1215.32 436 1215.24 435.663 1215.13 435.315C1215.01 434.965 1214.88 434.599 1214.73 434.226C1214.41 433.487 1213.99 432.713 1213.44 432.011C1213.16 431.665 1212.84 431.332 1212.49 431.047C1212.13 430.761 1211.74 430.52 1211.32 430.359C1211.22 430.313 1211.11 430.282 1211.01 430.252C1210.9 430.215 1210.8 430.192 1210.68 430.175C1210.58 430.152 1210.48 430.138 1210.36 430.129C1210.25 430.118 1210.14 430.111 1210.05 430.118L1209.92 430.12L1209.84 430.123L1209.76 430.131C1209.65 430.138 1209.55 430.16 1209.45 430.183C1209.26 430.238 1209.08 430.31 1208.92 430.399C1208.6 430.577 1208.38 430.817 1208.22 431.033C1208.05 431.251 1207.96 431.463 1207.88 431.636C1207.81 431.809 1207.77 431.953 1207.74 432.048C1207.72 432.143 1207.7 432.194 1207.7 432.194Z" fill="#CF9166"/>
<path d="M1237.43 465.545L1224.99 460.345C1224.99 460.345 1216.44 479.813 1216.4 479.793C1216.4 479.793 1215.7 484.097 1221.19 486.49C1226.68 488.883 1229.72 485.356 1229.72 485.356C1229.72 485.228 1237.43 465.545 1237.43 465.545Z" fill="#EDAC7C"/>
<path d="M1233.43 475.997L1220.15 471.338C1220.15 471.338 1217.18 478.192 1217.13 478.172C1217.13 478.172 1216.62 481.611 1222.11 484.007C1227.59 486.398 1230.45 483.437 1230.45 483.437C1230.45 483.31 1233.43 475.997 1233.43 475.997Z" fill="#CF9166"/>
<path d="M1235.95 469.161L1223.5 463.96C1223.5 463.96 1222.32 466.407 1221.3 468.485C1221.15 468.784 1224.5 470.824 1224.86 471.048C1227.71 472.809 1230.87 473.666 1234.15 474.144C1234.95 471.916 1235.95 469.161 1235.95 469.161Z" fill="#CF9166"/>
<path d="M1268.54 433.198C1257.62 433.198 1248.47 427.573 1242.96 419.196H1212.88C1212.32 421.023 1211.82 423.013 1211.38 425.219C1208.07 441.839 1212.39 463.464 1229 470.401C1245.61 477.34 1265.11 466.004 1271.53 450.344C1273.87 444.633 1274.24 438.576 1272.98 432.843C1271.52 433.074 1270.03 433.198 1268.54 433.198Z" fill="#3E150D"/>
<path d="M1268.49 448.624C1271.77 439.773 1271.43 429.98 1264.27 423.026C1260.64 419.488 1256.05 417.037 1251.37 415.172C1246.75 413.328 1241.74 411.585 1236.73 411.461C1227.76 411.24 1227.23 415.75 1223.18 423.389C1222.78 424.137 1216.02 425.79 1215.67 426.561C1214.87 428.332 1214.01 430.046 1213.33 431.878C1211.82 435.997 1210.79 440.331 1210.52 444.731C1210.2 450.066 1211.07 455.511 1213.64 460.289C1215.09 463.006 1217.05 465.437 1219.34 467.508C1223.11 470.925 1227.11 473.201 1232.08 474.273C1235.45 475.001 1238.93 475.243 1242.33 474.791C1247.98 474.044 1253.09 471.349 1257.18 467.474C1260.62 464.213 1263.34 460.238 1265.48 456.02C1266.64 453.71 1267.68 451.302 1268.43 448.822C1268.45 448.754 1268.47 448.688 1268.49 448.624Z" fill="#EDAC7C"/>
<path d="M1246.28 446.631C1245.17 449.07 1246.07 451.882 1248.29 452.911C1250.51 453.941 1253.21 452.796 1254.33 450.357C1255.44 447.917 1254.54 445.107 1252.32 444.077C1250.1 443.047 1247.4 444.191 1246.28 446.631Z" fill="#CF9166"/>
<path d="M1246.63 444.871C1245.51 447.31 1246.41 450.121 1248.63 451.153C1250.85 452.183 1253.56 451.038 1254.67 448.599C1255.78 446.162 1254.89 443.347 1252.66 442.317C1250.44 441.29 1247.74 442.432 1246.63 444.871Z" fill="black"/>
<path d="M1248.55 444.315C1248.15 445.198 1248.55 446.25 1249.44 446.661C1250.33 447.075 1251.38 446.696 1251.78 445.81C1252.18 444.927 1251.79 443.877 1250.9 443.463C1250.01 443.051 1248.96 443.431 1248.55 444.315Z" fill="white"/>
<path d="M1221.23 437.287C1220.12 439.728 1221.02 442.539 1223.24 443.567C1225.46 444.597 1228.17 443.451 1229.28 441.015C1230.39 438.576 1229.49 435.764 1227.27 434.734C1225.05 433.707 1222.35 434.847 1221.23 437.287Z" fill="#CF9166"/>
<path d="M1221.7 436.253C1220.59 438.693 1221.49 441.504 1223.71 442.534C1225.93 443.564 1228.64 442.421 1229.75 439.981C1230.86 437.543 1229.96 434.729 1227.74 433.701C1225.52 432.672 1222.82 433.816 1221.7 436.253Z" fill="black"/>
<path d="M1223.63 435.7C1223.23 436.581 1223.62 437.633 1224.51 438.045C1225.4 438.46 1226.46 438.079 1226.86 437.194C1227.26 436.31 1226.87 435.26 1225.97 434.846C1225.08 434.435 1224.03 434.815 1223.63 435.7Z" fill="white"/>
<path d="M1237.1 437.899C1237.1 437.899 1235.64 447.459 1232.98 446.596C1227.82 444.932 1226.26 456.357 1234.81 453.206C1238.04 452.018 1239.7 438.339 1239.7 438.339L1237.1 437.899Z" fill="#F48470"/>
<path d="M1220.56 432.136C1220.56 432.136 1220.72 432.001 1221.05 431.823C1221.21 431.737 1221.41 431.624 1221.65 431.533C1221.88 431.429 1222.15 431.336 1222.46 431.245C1222.76 431.155 1223.1 431.078 1223.46 431.017C1223.82 430.962 1224.2 430.905 1224.6 430.897C1225 430.868 1225.41 430.888 1225.83 430.914C1226.25 430.934 1226.67 431.021 1227.09 431.078C1227.51 431.173 1227.92 431.273 1228.33 431.391C1228.72 431.526 1229.11 431.67 1229.47 431.819C1229.84 431.989 1230.18 432.165 1230.5 432.334C1230.82 432.507 1231.1 432.712 1231.36 432.884C1231.62 433.065 1231.86 433.226 1232.05 433.405C1232.24 433.572 1232.4 433.728 1232.54 433.853C1232.8 434.102 1232.95 434.262 1232.95 434.262C1232.95 434.262 1232.73 434.21 1232.39 434.096C1232.22 434.041 1232.01 433.975 1231.77 433.891C1231.55 433.8 1231.28 433.725 1230.99 433.633C1230.7 433.548 1230.4 433.425 1230.07 433.333C1229.74 433.241 1229.4 433.14 1229.05 433.028C1228.69 432.936 1228.33 432.85 1227.96 432.743C1227.59 432.663 1227.21 432.58 1226.83 432.499C1226.64 432.467 1226.45 432.435 1226.26 432.403C1226.07 432.37 1225.89 432.327 1225.7 432.311C1225.51 432.291 1225.32 432.263 1225.14 432.235C1224.95 432.205 1224.77 432.203 1224.59 432.18C1224.23 432.137 1223.88 432.124 1223.54 432.101C1223.37 432.084 1223.21 432.093 1223.05 432.084C1222.89 432.079 1222.74 432.068 1222.59 432.073C1222.29 432.07 1222.01 432.068 1221.77 432.076C1221.52 432.078 1221.31 432.093 1221.13 432.098C1220.96 432.113 1220.81 432.111 1220.71 432.125C1220.61 432.133 1220.56 432.136 1220.56 432.136Z" fill="black"/>
<path d="M1258.95 439.957C1258.95 439.957 1258.86 439.767 1258.64 439.468C1258.53 439.325 1258.39 439.138 1258.22 438.954C1258.04 438.764 1257.83 438.563 1257.59 438.352C1257.35 438.145 1257.08 437.936 1256.78 437.731C1256.47 437.532 1256.14 437.32 1255.78 437.149C1255.43 436.955 1255.05 436.801 1254.66 436.65C1254.27 436.491 1253.85 436.397 1253.44 436.273C1253.02 436.186 1252.6 436.103 1252.19 436.045C1251.77 436.002 1251.36 435.973 1250.96 435.956C1250.57 435.962 1250.18 435.978 1249.82 435.999C1249.46 436.023 1249.12 436.092 1248.81 436.142C1248.5 436.198 1248.22 436.247 1247.98 436.329C1247.73 436.402 1247.52 436.476 1247.35 436.534C1247 436.652 1246.81 436.735 1246.81 436.735C1246.81 436.735 1247.02 436.778 1247.38 436.817C1247.56 436.84 1247.78 436.867 1248.02 436.886C1248.27 436.899 1248.54 436.942 1248.85 436.98C1249.14 437.021 1249.47 437.035 1249.8 437.087C1250.14 437.139 1250.49 437.191 1250.86 437.234C1251.22 437.3 1251.59 437.374 1251.97 437.429C1252.34 437.509 1252.72 437.593 1253.09 437.677C1253.28 437.726 1253.47 437.775 1253.65 437.825C1253.84 437.875 1254.03 437.912 1254.21 437.978C1254.39 438.038 1254.57 438.091 1254.75 438.14C1254.93 438.191 1255.1 438.264 1255.27 438.321C1255.62 438.432 1255.94 438.565 1256.26 438.686C1256.42 438.738 1256.56 438.815 1256.71 438.873C1256.86 438.933 1257 438.989 1257.14 439.054C1257.41 439.175 1257.66 439.287 1257.88 439.397C1258.1 439.501 1258.29 439.604 1258.45 439.684C1258.61 439.771 1258.74 439.833 1258.82 439.882C1258.91 439.929 1258.95 439.957 1258.95 439.957Z" fill="black"/>
<path d="M1268.82 449.089C1268.82 449.089 1270.64 445.898 1272.39 441.52C1270.54 445.949 1268.82 449.089 1268.82 449.089Z" fill="#CF9166"/>
<path d="M1271.25 417.795C1269.46 417.975 1267.6 417.933 1265.81 417.971C1261.52 418.067 1257.23 417.939 1252.93 418.019C1250.38 418.067 1247.83 418.18 1245.28 418.381C1245.06 418.398 1239.15 419.008 1239.33 418.931C1234.93 419.538 1230.54 420.312 1226.15 420.991C1224.45 421.255 1222.78 421.399 1221.12 421.475C1226.09 422.536 1232.52 422.228 1237.01 421.787C1236.77 421.862 1236.56 421.92 1236.29 422.01C1231.66 423.6 1235.49 428.805 1243.62 432.305C1254.88 437.147 1265.08 435.228 1265.08 435.228C1265.08 435.228 1263.26 438.56 1262.87 444.431C1262.6 448.45 1263.58 453.37 1264.23 456.076C1264.53 457.32 1264.76 458.098 1264.76 458.098L1263.28 460.783C1263.28 460.783 1266.55 455.201 1272.39 447.935C1284.55 432.795 1283.27 424.009 1280.92 419.737C1277.62 419.564 1274.35 418.936 1271.25 417.795Z" fill="#361710"/>
<path d="M1270.46 437.056C1270.46 437.056 1246.25 438.109 1205.85 421.895C1186.52 414.137 1218.14 413.586 1218.14 413.586L1255.55 412.721L1270.46 437.056Z" fill="#2D2C44"/>
<path d="M1275.4 444.177C1275.4 444.177 1273.99 441.165 1270.46 437.057C1266.4 432.327 1259.54 426.142 1248.84 421.435C1228.85 412.642 1218.14 413.588 1218.14 413.588C1218.14 413.588 1219.77 401.739 1235.24 395.843C1241.26 393.551 1247.45 392.937 1253.37 393.91C1263.3 395.542 1272.47 401.637 1278.76 411.766C1288.74 427.848 1275.4 444.177 1275.4 444.177Z" fill="#2D2C44"/>
<path d="M1270.46 437.057C1266.4 432.325 1259.54 426.142 1248.84 421.435C1228.85 412.641 1218.14 413.587 1218.14 413.587C1218.14 413.587 1219.77 401.739 1235.24 395.841C1241.26 393.55 1247.45 392.936 1253.37 393.91C1258.49 396.152 1263.33 399.646 1267.58 404.373C1278.96 417.034 1272.34 433.147 1270.46 437.057Z" fill="#A7A6BB"/>
<path d="M1266.92 454.351C1266.92 454.351 1250.34 460.947 1243.55 465.986C1241.77 467.312 1240.81 471.803 1234.99 471.803C1227.78 471.803 1228.92 468.33 1224.19 465.039C1221.55 463.197 1215.94 461.33 1214.36 459.017C1210.86 453.934 1210.89 437.586 1210.89 437.586C1210.89 437.586 1206.08 450.263 1209.74 462.292C1211.31 467.461 1213.31 480.902 1231.09 481.566C1247.91 482.193 1250.53 476.969 1253.82 473.557C1257.1 470.148 1266.92 454.351 1266.92 454.351Z" fill="#361710"/>
<path d="M1152.96 442.75L1159.66 446.112C1166.77 449.68 1169.67 458.394 1166.14 465.572L1162.72 472.504C1159.18 479.682 1150.55 482.608 1143.44 479.038L1136.74 475.675C1129.63 472.107 1126.73 463.394 1130.26 456.216L1133.68 449.285C1137.22 442.107 1145.85 439.182 1152.96 442.75Z" fill="#FCC822"/>
<path d="M1169.44 487.421L1167.11 482.257C1166.53 480.526 1166.32 478.694 1166.48 476.876L1167.52 465.261C1167.65 463.745 1167.19 462.233 1166.22 461.064L1156.95 449.824C1156.36 449.106 1155.24 449.194 1154.77 449.994C1154.49 450.47 1154.52 451.07 1154.85 451.511L1159.15 457.196L1155.17 454.002C1154.39 453.384 1153.25 453.711 1152.91 454.646C1152.71 455.202 1152.87 455.828 1153.3 456.223L1159.52 461.891L1153.65 458.043C1152.84 457.511 1151.75 457.88 1151.42 458.797C1151.17 459.485 1151.45 460.253 1152.08 460.624L1157.47 463.797L1151.72 461.858C1151.02 461.625 1150.27 461.991 1150.02 462.685C1149.79 463.323 1150.06 464.034 1150.66 464.353L1153.97 466.133C1156.16 467.318 1157.35 469.802 1156.89 472.272L1155.81 478.069C1155.2 481.355 1155.85 484.752 1157.64 487.568L1160.56 492.166L1169.44 487.421Z" fill="#EDAC7C"/>
<path d="M1242.28 496.241L1202.49 517.744C1199.85 519.172 1196.56 518.309 1194.95 515.766L1171.68 479.577L1154.37 489.097L1187.87 544.399C1190.29 548.011 1195 549.22 1198.83 547.209L1253.83 518.311C1259.28 515.449 1261.82 508.984 1259.8 503.131C1257.29 495.895 1248.98 492.624 1242.28 496.241Z" fill="#A7A6BB"/>
<path d="M1218.79 567.815C1218.79 589.691 1201.22 607.431 1179.54 607.431L1141.58 604.011L1114.46 601.566V595.18C1114.46 580.065 1126.6 567.815 1141.58 567.815H1218.79Z" fill="#2D2C44"/>
<path d="M1140.8 567.816V674.114L1117.01 669.148L1113.98 595.182C1113.98 580.067 1125.47 567.816 1140.8 567.816Z" fill="#2D2C44"/>
<path d="M1100.17 655.043C1089.14 655.3 1080.27 664.401 1080.27 675.598C1080.27 676.643 1081.11 677.491 1082.15 677.491H1100.17V655.043Z" fill="white"/>
<path d="M1114.63 636.194V653.139C1114.63 654.183 1113.79 655.03 1112.76 655.03H1100.65C1100.03 655.03 1099.41 655.06 1098.8 655.115V671.609H1141.77V636.194H1114.63Z" fill="#361710"/>
<path d="M1133.71 649.297C1133.71 652.469 1131.16 655.043 1128.02 655.043C1124.87 655.043 1122.32 652.469 1122.32 649.297C1122.32 646.122 1124.87 643.548 1128.02 643.548C1131.16 643.548 1133.71 646.122 1133.71 649.297Z" fill="white"/>
<path d="M1081.47 668.643C1080.7 670.815 1080.27 673.155 1080.27 675.597C1080.27 676.642 1081.11 677.488 1082.15 677.488H1139.9C1140.93 677.488 1141.77 676.642 1141.77 675.597V668.643H1081.47Z" fill="white"/>
<path d="M1257.04 259.806C1274.44 268.537 1284.5 281.443 1287.22 298.518C1289.42 312.017 1287.22 325.464 1280.62 338.866C1269.58 361.279 1249.01 377.546 1218.94 387.669C1208.45 391.196 1200.67 397.525 1195.6 406.652C1193.83 409.656 1192.01 413.062 1190.13 416.877C1186.59 424.054 1177.96 426.98 1170.85 423.41L1164.15 420.048C1157.04 416.48 1154.14 407.766 1157.67 400.589C1167.75 380.138 1180.22 367.448 1195.08 362.51C1211.13 357.165 1223.95 349.838 1233.54 340.526C1239.07 335.089 1243.63 328.734 1247.22 321.455C1250.92 313.945 1252.16 307.221 1250.95 301.28C1249.73 294.474 1245.41 289.78 1237.97 287.199C1231.05 284.734 1224.1 286.94 1217.14 293.822C1216.79 294.154 1216.45 294.494 1216.11 294.845C1211.1 299.972 1203.11 300.585 1197.37 296.313L1191.75 292.127C1184.79 286.943 1183.88 276.747 1189.85 270.426C1195.78 264.143 1202.59 259.34 1210.28 256.014C1218.62 252.418 1228.17 251.589 1238.93 253.528C1244.59 254.497 1250.62 256.587 1257.04 259.806Z" fill="#FCC822"/>
<path d="M1229.17 466.658C1229.64 466.658 1230.04 466.336 1230.16 465.878C1230.63 464.051 1232.26 462.697 1234.22 462.697C1236.18 462.697 1237.81 464.051 1238.28 465.878C1238.39 466.336 1238.8 466.658 1239.27 466.658C1239.93 466.658 1240.45 466.037 1240.28 465.392C1239.6 462.647 1237.15 460.611 1234.22 460.611C1231.28 460.611 1228.84 462.647 1228.15 465.392C1227.99 466.037 1228.51 466.658 1229.17 466.658Z" fill="#F05B4E"/>
<path d="M1247.39 464.829C1246.43 460.243 1243.22 456.454 1238.9 454.797C1238.09 454.485 1237.17 454.633 1236.53 455.218C1235.82 455.866 1235.04 456.561 1234.22 456.561C1233.35 456.561 1232.54 455.83 1231.8 455.152C1231.16 454.574 1230.26 454.413 1229.46 454.706C1225.57 456.113 1222.48 459.26 1221.14 463.271C1220.72 464.513 1221.33 465.951 1222.57 466.328C1223.79 466.696 1224.99 466.006 1225.36 464.855C1226.6 460.937 1230.32 458.201 1234.58 458.449C1238.84 458.698 1242.22 461.847 1243.01 465.882C1243.21 466.895 1244.05 467.645 1245.07 467.704H1245.07C1246.57 467.704 1247.7 466.308 1247.39 464.829Z" fill="#361710"/>
<path d="M1160.64 567.985C1160.64 567.985 1189.09 568.752 1201.48 579.36C1213.87 589.967 1216.69 590.157 1216.69 590.157C1216.69 590.157 1218.48 568.81 1225.19 554.95C1231.89 541.092 1223.44 544.884 1221.75 546.967C1220.06 549.05 1198.85 567.032 1198.85 567.032L1194.66 567.817L1160.64 567.985Z" fill="#727293"/>
<path d="M1329.35 358.008C1329.35 358.008 1327.48 365.263 1330.57 366.919C1333.65 368.575 1341.54 369.443 1341.62 366.919C1341.7 364.395 1343.89 361.951 1339.98 360.216C1336.07 358.482 1331.46 358.008 1331.46 358.008H1329.35Z" fill="#C9BDBD"/>
<path d="M1404.89 272.951C1404.81 272.966 1404.73 272.983 1404.65 273.002C1404.01 273.14 1403.64 273.27 1403.64 273.27V273.299C1403.49 273.354 1403.33 273.403 1403.19 273.469C1394.97 277.175 1394.97 284.761 1394.97 284.761L1400.04 299.935C1400.04 299.935 1401.46 300.004 1403.58 299.807L1403.43 368.525L1404.17 368.951C1409.67 372.138 1416.44 372.152 1421.95 368.984L1422.75 368.525C1422.75 368.525 1423.74 340.919 1424.1 303.399C1424.41 271.461 1409.37 272.065 1404.89 272.951Z" fill="#161616"/>
<path d="M1392.92 283.784L1395.96 279.742C1396.35 279.23 1397.06 279.109 1397.58 279.474C1400.9 281.775 1411.72 290.125 1410.24 300.181L1392.92 283.784Z" fill="white"/>
<path d="M1380.17 347.856C1380.18 347.816 1383.28 347.465 1383.46 347.431C1386.17 346.928 1388.83 346.105 1391.36 344.992C1399.16 341.55 1405.16 335.198 1408.13 327.126C1410.26 321.329 1410.86 315.056 1410.62 308.911C1410.29 299.898 1408.22 290.05 1400.36 284.541C1393.66 279.852 1390.38 281.276 1390.38 281.276C1390.38 281.276 1380.18 347.833 1380.17 347.856Z" fill="#161616"/>
<path d="M1382 336.309L1368.35 335.436C1368.35 335.436 1366.48 356.961 1366.42 356.958C1366.42 356.958 1367.16 361.32 1373.2 361.805C1379.25 362.285 1381.03 357.89 1381.03 357.89C1380.98 357.767 1382 336.309 1382 336.309Z" fill="#F8D0B7"/>
<path d="M1373.69 352.987C1369.21 352.63 1367.59 351.048 1367.05 350.251C1367.61 343.935 1368.35 335.437 1368.35 335.437L1382 336.31C1382 336.31 1381.61 344.531 1381.32 350.826C1380.95 351.317 1379.04 353.412 1373.69 352.987Z" fill="#EFBDAC"/>
<path d="M1376.16 343.192L1362.52 342.318C1362.52 342.318 1362.17 345.062 1361.87 347.394C1361.82 347.732 1365.7 348.582 1366.13 348.677C1369.43 349.423 1372.75 349.201 1376.05 348.574C1376.09 346.169 1376.16 343.192 1376.16 343.192Z" fill="#CF9166"/>
<path d="M1346.04 303.775C1346.42 301.009 1346.71 298.663 1348.92 296.048C1354.31 289.658 1362.92 286.01 1371.18 286.024C1383.61 286.045 1396.49 290.852 1399.81 303.972C1400.95 308.464 1400.98 313.176 1400.54 317.793C1399.85 325.074 1397.91 332.433 1393.56 338.282C1388.34 345.29 1379.72 349.585 1371.04 349.504C1357.77 349.38 1347.16 342.188 1343.59 330.512C1341.02 322.108 1343.42 315.524 1345.4 307.351C1345.72 306.062 1345.89 304.885 1346.04 303.775Z" fill="#F8D0B7"/>
<path d="M1405.16 319.314C1405.19 319.354 1405.23 319.409 1405.23 319.409C1405.23 319.409 1405.22 319.351 1405.21 319.243C1405.19 319.139 1405.17 318.975 1405.1 318.776C1405.04 318.58 1404.94 318.333 1404.76 318.071C1404.58 317.809 1404.33 317.513 1403.92 317.268C1403.72 317.142 1403.49 317.033 1403.23 316.941C1403.09 316.898 1402.96 316.858 1402.82 316.832L1402.71 316.809L1402.59 316.791L1402.4 316.763C1402.29 316.742 1402.13 316.731 1401.98 316.725C1401.81 316.713 1401.66 316.71 1401.51 316.716C1401.36 316.717 1401.21 316.722 1401.05 316.74C1400.9 316.756 1400.74 316.771 1400.59 316.8C1400.42 316.829 1400.25 316.88 1400.07 316.923C1400.09 315.745 1400.05 314.568 1399.93 313.402C1401.44 313.186 1403.13 313.334 1405.01 314.128C1412.91 317.479 1409 332.774 1396.53 333.41C1396.85 332.734 1397.14 332.047 1397.41 331.353C1404.09 329.397 1406.55 322.755 1405.16 319.314Z" fill="#F8D0B7"/>
<path d="M1401.29 317.768C1401.4 317.743 1401.51 317.73 1401.62 317.716C1401.74 317.696 1401.84 317.687 1401.94 317.682C1402.04 317.674 1402.14 317.667 1402.27 317.673L1402.46 317.674L1402.51 317.676H1402.53H1402.55C1402.53 317.674 1402.58 317.679 1402.52 317.673H1402.53L1402.6 317.679C1402.7 317.684 1402.79 317.699 1402.89 317.71C1403.07 317.74 1403.25 317.785 1403.42 317.848C1404.09 318.105 1404.54 318.554 1404.82 318.873C1404.95 319.036 1405.06 319.166 1405.13 319.264C1405.15 319.296 1405.15 319.292 1405.16 319.313C1406.55 322.754 1404.09 329.396 1397.41 331.35C1398.69 328.076 1399.44 324.612 1399.81 321.163C1399.92 320.174 1400 319.183 1400.04 318.186C1400.34 318.058 1400.64 317.921 1400.95 317.843C1401.06 317.809 1401.17 317.789 1401.29 317.768Z" fill="#FFB7A1"/>
<path d="M1401.05 316.74C1401.21 316.72 1401.36 316.716 1401.51 316.714C1401.66 316.708 1401.81 316.711 1401.97 316.724C1402.14 316.731 1402.29 316.742 1402.4 316.763L1402.59 316.791L1402.71 316.809L1402.81 316.832C1402.96 316.858 1403.1 316.898 1403.23 316.941C1403.49 317.032 1403.72 317.142 1403.92 317.268C1404.32 317.513 1404.58 317.807 1404.76 318.071C1404.95 318.333 1405.04 318.578 1405.1 318.776C1405.17 318.975 1405.19 319.138 1405.21 319.243C1405.22 319.351 1405.23 319.407 1405.23 319.407C1405.23 319.407 1405.19 319.354 1405.16 319.314C1405.15 319.293 1405.15 319.297 1405.12 319.263C1405.06 319.167 1404.95 319.037 1404.82 318.874C1404.54 318.555 1404.09 318.106 1403.42 317.849C1403.25 317.786 1403.07 317.741 1402.89 317.711C1402.79 317.7 1402.7 317.685 1402.6 317.68L1402.53 317.674H1402.52C1402.58 317.68 1402.53 317.675 1402.54 317.677H1402.53H1402.51L1402.46 317.675L1402.28 317.672C1402.14 317.666 1402.04 317.675 1401.94 317.683C1401.84 317.688 1401.74 317.697 1401.62 317.717C1401.51 317.731 1401.4 317.744 1401.28 317.769C1401.17 317.79 1401.06 317.81 1400.95 317.844C1400.64 317.922 1400.34 318.059 1400.04 318.187C1400.06 317.767 1400.07 317.346 1400.07 316.923C1400.25 316.88 1400.42 316.829 1400.59 316.8C1400.74 316.771 1400.9 316.756 1401.05 316.74Z" fill="#FFA792"/>
<path d="M1365.22 317.302C1365.22 317.302 1365.56 323.321 1362.8 322.676C1357.44 321.434 1356.82 333.124 1365.21 329.206C1368.37 327.728 1367.89 317.526 1367.89 317.526L1365.22 317.302Z" fill="#F48470"/>
<path d="M1355.97 333.269C1355.81 335.777 1353.64 337.679 1351.11 337.517C1348.58 337.354 1346.66 335.192 1346.82 332.684C1346.98 330.176 1349.15 328.276 1351.68 328.436C1354.21 328.599 1356.13 330.762 1355.97 333.269Z" fill="#FFB7A1"/>
<path d="M1388.98 332.448C1388.83 334.957 1386.65 336.858 1384.12 336.695C1381.59 336.534 1379.67 334.373 1379.83 331.865C1379.99 329.357 1382.16 327.457 1384.69 327.618C1387.22 327.779 1389.14 329.943 1388.98 332.448Z" fill="#FFB7A1"/>
<path d="M1347.83 313.642C1347.83 313.642 1347.96 313.472 1348.24 313.224C1348.38 313.101 1348.55 312.945 1348.77 312.801C1348.98 312.646 1349.23 312.49 1349.51 312.332C1349.79 312.174 1350.11 312.019 1350.45 311.88C1350.79 311.745 1351.16 311.601 1351.55 311.503C1351.94 311.385 1352.35 311.311 1352.77 311.242C1353.19 311.165 1353.63 311.158 1354.06 311.118C1354.49 311.119 1354.93 311.123 1355.35 311.149C1355.77 311.193 1356.19 311.248 1356.58 311.311C1356.98 311.4 1357.35 311.497 1357.71 311.59C1358.07 311.691 1358.39 311.829 1358.69 311.943C1358.98 312.062 1359.25 312.166 1359.48 312.301C1359.71 312.424 1359.91 312.54 1360.07 312.634C1360.39 312.821 1360.56 312.945 1360.56 312.945C1360.56 312.945 1360.34 312.942 1359.97 312.908C1359.79 312.893 1359.57 312.875 1359.32 312.844C1359.07 312.806 1358.79 312.792 1358.48 312.767C1358.18 312.747 1357.85 312.694 1357.51 312.677C1357.16 312.658 1356.8 312.638 1356.43 312.605C1356.06 312.594 1355.68 312.593 1355.29 312.571C1354.9 312.576 1354.51 312.579 1354.12 312.585C1353.92 312.594 1353.73 312.606 1353.53 312.617C1353.34 312.629 1353.14 312.628 1352.95 312.654C1352.76 312.675 1352.57 312.692 1352.38 312.707C1352.19 312.717 1352.01 312.758 1351.83 312.778C1351.46 312.816 1351.11 312.881 1350.77 312.933C1350.6 312.956 1350.44 313.002 1350.28 313.028C1350.12 313.058 1349.97 313.083 1349.82 313.123C1349.53 313.186 1349.25 313.247 1349.02 313.31C1348.77 313.367 1348.56 313.431 1348.38 313.477C1348.22 313.532 1348.07 313.563 1347.98 313.598C1347.88 313.627 1347.83 313.642 1347.83 313.642Z" fill="#161616"/>
<path d="M1384.05 311.642C1384.05 311.642 1383.92 311.476 1383.63 311.234C1383.48 311.121 1383.31 310.968 1383.09 310.83C1382.87 310.682 1382.62 310.534 1382.34 310.384C1382.05 310.236 1381.73 310.095 1381.38 309.965C1381.03 309.843 1380.66 309.711 1380.26 309.628C1379.87 309.519 1379.46 309.459 1379.04 309.404C1378.61 309.341 1378.18 309.347 1377.75 309.321C1377.31 309.337 1376.88 309.355 1376.46 309.396C1376.04 309.453 1375.62 309.522 1375.23 309.6C1374.84 309.7 1374.47 309.809 1374.11 309.915C1373.76 310.025 1373.45 310.175 1373.15 310.296C1372.86 310.427 1372.59 310.543 1372.37 310.681C1372.14 310.811 1371.95 310.935 1371.79 311.034C1371.48 311.233 1371.31 311.362 1371.31 311.362C1371.31 311.362 1371.53 311.354 1371.89 311.306C1372.07 311.286 1372.3 311.26 1372.55 311.222C1372.79 311.173 1373.07 311.152 1373.38 311.115C1373.68 311.087 1374.01 311.024 1374.35 310.994C1374.7 310.966 1375.05 310.932 1375.42 310.886C1375.79 310.866 1376.18 310.85 1376.57 310.814C1376.95 310.805 1377.34 310.799 1377.74 310.788C1377.93 310.793 1378.13 310.797 1378.32 310.802C1378.51 310.808 1378.71 310.801 1378.9 310.824C1379.1 310.839 1379.29 310.848 1379.47 310.854C1379.66 310.86 1379.85 310.894 1380.03 310.908C1380.4 310.934 1380.75 310.988 1381.1 311.03C1381.27 311.043 1381.43 311.087 1381.58 311.107C1381.75 311.132 1381.9 311.153 1382.05 311.184C1382.34 311.24 1382.62 311.291 1382.86 311.348C1383.11 311.395 1383.32 311.452 1383.49 311.492C1383.67 311.544 1383.81 311.57 1383.91 311.601C1384 311.625 1384.05 311.642 1384.05 311.642Z" fill="#050607"/>
<path d="M1375.38 317.543C1374.91 319.263 1375.93 321.005 1377.63 321.436C1379.34 321.867 1381.1 320.823 1381.55 319.102C1382.01 317.383 1381 315.637 1379.3 315.207C1377.59 314.778 1375.84 315.823 1375.38 317.543Z" fill="#050607"/>
<path d="M1376.66 316.967C1376.5 317.59 1376.92 318.235 1377.6 318.407C1378.28 318.581 1378.97 318.216 1379.14 317.593C1379.31 316.97 1378.89 316.325 1378.2 316.153C1377.52 315.979 1376.83 316.345 1376.66 316.967Z" fill="white"/>
<path d="M1357.24 316.794C1357.7 318.514 1356.69 320.258 1354.98 320.689C1353.28 321.119 1351.52 320.076 1351.06 318.354C1350.6 316.634 1351.61 314.89 1353.32 314.459C1355.03 314.03 1356.78 315.076 1357.24 316.794Z" fill="#050607"/>
<path d="M1355.96 316.218C1356.12 316.841 1355.7 317.486 1355.02 317.658C1354.33 317.832 1353.64 317.468 1353.48 316.842C1353.31 316.221 1353.73 315.576 1354.42 315.404C1355.1 315.23 1355.79 315.596 1355.96 316.218Z" fill="white"/>
<path d="M1386.82 302.809C1386.82 302.809 1397.52 335.855 1387.73 345.735C1387.73 345.735 1401.95 337.87 1403.24 301.806L1386.82 302.809Z" fill="#161616"/>
<path d="M1401.24 309.695C1404.91 309.098 1405.17 293.283 1404.61 291.128C1402.7 283.715 1392.21 279.161 1385.81 276.738C1375.72 272.922 1363.04 272.296 1353.92 278.907C1349.03 282.452 1346.63 287.44 1344.35 292.877C1343.93 293.879 1339.38 306.519 1339.35 306.519C1339.35 306.519 1374.08 308.303 1373.81 308.288L1377.09 308.456C1377.09 308.456 1398.66 310.113 1401.24 309.695" fill="#161616"/>
<path d="M1428.53 408.016H1428.3C1425.65 408.028 1423.06 408.97 1420.77 410.351C1423.21 413.567 1425.94 416.529 1429.45 418.59C1429.69 418.726 1429.91 418.844 1430.13 418.954C1430.58 418.427 1431 417.877 1431.38 417.288C1433.82 413.479 1434.16 408.104 1428.53 408.016Z" fill="#E8B79E"/>
<path d="M1351.56 505.588C1351.56 505.588 1353.3 559.52 1353.42 564.541C1353.53 569.561 1360.45 614.51 1361.29 625.523C1362.13 636.538 1359.13 659.165 1356.7 668.187L1353.75 675.841C1353.75 675.841 1363.21 679.659 1366.89 677.997C1372.67 675.379 1373.83 666.106 1375.28 660.65C1376.83 654.866 1377.97 648.874 1377.73 642.856C1377.49 637.07 1374.34 632.677 1373.14 627.16C1369.87 612.137 1375.44 596.594 1376.23 581.563C1376.94 568.153 1375.16 554.774 1373.17 541.546C1371.31 529.208 1376.97 518.282 1376.39 506.08C1376.39 506.08 1353.84 489.87 1351.31 503.032" fill="#EFC8B1"/>
<path d="M1355.66 670.888C1355.51 671.552 1357.44 672.256 1357.88 672.455C1361.07 673.911 1366.12 675.317 1368.74 672.053C1371.94 668.082 1372.68 661.19 1374.04 656.394C1375.57 650.965 1377.17 644.722 1376.7 639.019L1376.47 636.332C1376.47 636.332 1383.96 640.952 1383.49 647.366C1383.02 653.78 1376.63 664.535 1376.23 671.244C1375.98 675.378 1373.99 679.489 1370.64 681.944C1365.53 685.697 1356.7 685.43 1351.23 682.601C1349.21 681.554 1347.61 676.69 1350.26 675.461C1353.56 673.929 1358.91 658.266 1358.35 657.738L1356.7 668.186C1356.7 668.186 1355.66 670.882 1355.66 670.888Z" fill="#122738"/>
<path d="M1383.14 648.951C1383.14 648.951 1381.01 662.759 1382.04 670.484L1379.81 671.226L1377.59 660.867L1383.14 648.951Z" fill="#312E2F"/>
<path d="M1402.27 648.951C1402.27 648.951 1400.48 669.621 1401.5 677.348L1398.25 677.44L1396.72 660.867L1402.27 648.951Z" fill="#0C1B26"/>
<path d="M1368.51 505.588C1368.51 505.588 1372.44 559.52 1372.55 564.541C1372.67 569.561 1379.58 614.51 1380.42 625.523C1381.26 636.538 1378.26 659.165 1375.84 668.187L1372.89 675.841C1372.89 675.841 1382.35 679.659 1386.02 677.997C1391.8 675.379 1392.96 666.106 1394.42 660.65C1395.96 654.866 1397.11 648.874 1396.86 642.856C1396.63 637.07 1393.47 632.677 1392.27 627.16C1389 612.137 1394.57 596.594 1395.37 581.563C1396.08 568.153 1394.29 554.774 1392.3 541.546C1390.45 529.208 1396.11 518.282 1395.52 506.08C1395.52 506.08 1370.79 489.87 1368.25 503.032" fill="#F8D0B7"/>
<path d="M1374.79 670.888C1374.65 671.552 1376.58 672.256 1377.02 672.455C1380.2 673.911 1385.25 675.317 1387.88 672.053C1391.08 668.082 1391.81 661.19 1393.17 656.394C1394.71 650.965 1396.31 644.722 1395.83 639.019L1395.61 636.332C1395.61 636.332 1403.1 640.952 1402.63 647.366C1402.15 653.78 1395.76 664.535 1395.36 671.244C1395.12 675.378 1393.13 679.489 1389.78 681.944C1384.66 685.697 1375.83 685.43 1370.36 682.601C1368.34 681.554 1366.75 676.69 1369.4 675.461C1372.7 673.929 1378.04 658.266 1377.48 657.738L1375.84 668.186C1375.84 668.186 1374.79 670.882 1374.79 670.888Z" fill="#122738"/>
<path d="M1393.51 389.709C1395.37 380.843 1401.87 371.78 1402.27 369.789C1392.02 359.451 1382.87 355.78 1380.71 355.103L1367.96 355.159C1364.55 356.559 1361.11 357.889 1357.69 359.26C1356.4 359.773 1355.2 360.044 1354.39 361.174C1353.4 362.557 1352.89 364.926 1352.24 366.53C1350.45 370.912 1348.61 375.36 1347.72 380.057C1347.15 383.089 1347.86 386.355 1349.08 389.709H1393.51Z" fill="#F8D0B7"/>
<path d="M1406.28 457.443C1402.23 445.754 1396.77 434.466 1394.73 422.171C1387.63 425.208 1360.65 424.28 1355.39 419.585C1354.24 434.861 1346.47 449.464 1342.79 464.337C1340.48 473.632 1338.56 483.084 1338.21 492.682C1337.85 502.725 1341.44 533.207 1342.17 544.426C1371.39 563.509 1404.61 545.206 1405.93 541.745C1412.88 523.601 1412.54 496.459 1410.82 476.913C1410.23 470.159 1408.46 463.743 1406.28 457.443Z" fill="#122738"/>
<path d="M1342.79 464.337C1342.63 464.951 1342.49 465.571 1342.34 466.187C1352.73 471.795 1393.2 475.171 1408.49 464.511C1407.84 462.133 1407.09 459.778 1406.28 457.442C1402.39 446.214 1397.2 435.351 1394.99 423.616L1388.8 423.473C1382.41 424.22 1373.19 424.037 1365.92 422.951L1357.42 422.756C1357.42 422.756 1354.36 446.164 1344.51 458.241C1343.88 460.27 1343.29 462.301 1342.79 464.337Z" fill="#0B1C28"/>
<path d="M1367.03 377.446C1367 377.005 1366.95 376.576 1366.89 376.145C1366.88 376.073 1366.87 376.004 1366.86 375.93C1366.11 370.878 1363.24 366.651 1359.56 363.832C1354.94 360.457 1350.01 357.549 1345.17 354.525C1335.44 348.565 1327.09 343.767 1317.25 337.995C1314.19 332.311 1311.1 326.663 1307.87 321.105C1306.24 318.327 1304.61 315.551 1302.78 312.915C1300.72 310.487 1299.21 307.676 1297.74 304.78C1294.77 299.049 1292.21 292.936 1288.12 287.99C1285.88 285.396 1283.45 283.034 1280.91 280.808C1281.14 281.21 1288.84 294.766 1288.05 308.35C1288.05 308.35 1288.03 308.355 1288.02 308.358C1288.95 308.906 1289.86 309.484 1290.79 310.032L1291.79 310.642L1292.29 310.947C1292.47 311.043 1292.63 311.158 1292.62 311.261C1292.88 311.803 1293.14 312.723 1293.37 313.485C1294.28 316.701 1295.23 319.927 1296.35 323.062C1298.58 329.322 1301.38 335.354 1305.25 340.505C1307.19 343.062 1309.36 345.461 1311.84 347.415C1314.28 349.405 1316.76 351.346 1319.25 353.26C1324.24 357.084 1327.86 359.742 1333.09 363.234C1338.31 366.717 1343.65 370.041 1349.22 372.972C1354.85 375.792 1360.6 378.447 1367.06 379.437C1367.06 379.324 1367.05 379.215 1367.05 379.102C1367.07 378.786 1367.08 378.214 1367.03 377.446Z" fill="#EFC8B1"/>
<path d="M1284.43 288.037C1284.26 289.992 1283.18 294.986 1282.44 296.763C1281.05 296.551 1279.69 295.972 1278.48 295.238C1277.14 294.468 1276.11 293.331 1274.82 292.327C1274.16 291.85 1273.46 291.429 1272.66 291.153C1271.86 290.938 1270.95 290.676 1269.89 291.358C1269.77 291.455 1269.6 291.6 1269.52 291.878C1269.41 292.169 1269.49 292.255 1269.49 292.446C1269.56 292.707 1269.66 292.923 1269.77 293.115C1269.98 293.495 1270.22 293.838 1270.47 294.159C1270.96 294.807 1271.5 295.403 1272.04 295.986C1274.18 298.337 1276.59 300.408 1278.81 302.617L1280.44 304.34C1281.03 304.93 1281.72 305.382 1282.44 305.76C1283.87 306.519 1285.4 306.982 1286.78 307.644C1287.28 307.9 1287.77 308.198 1288.25 308.492V293.521C1286.36 292.954 1286.1 289.007 1284.43 288.037Z" fill="#EFC8B1"/>
<path d="M1333.13 347.3C1333.13 347.3 1335.72 351.543 1334.9 360.058C1334.08 368.574 1330.57 366.919 1330.57 366.919C1330.57 366.919 1339.36 373.66 1348.15 378.392C1356.94 383.124 1356.59 360.531 1356.59 360.531C1356.59 360.531 1334.06 344.478 1333.13 347.3Z" fill="white"/>
<path d="M1355.21 422.15C1355.18 422.756 1354.92 423.521 1355.34 423.815C1368.85 433.187 1395.03 423.41 1394.84 422.25C1393.94 416.658 1393.79 410.884 1394.85 405.303C1397.25 392.736 1406.44 380.556 1402.42 367.329C1402.4 367.283 1402.39 367.236 1402.37 367.19C1401.02 363.115 1387.68 358.391 1386.52 357.633C1386.91 358.667 1385.83 359.861 1385.46 360.327C1383.65 362.61 1380.79 364.035 1378.05 364.844C1374.88 365.786 1371.56 366.166 1368.26 366.037C1366.41 365.963 1364.55 365.724 1362.74 365.35C1361.62 365.122 1360.25 364.763 1359.51 363.839C1358.14 362.142 1359.43 359.673 1360.27 358.03C1360.27 358.03 1358.66 358.64 1356.59 358.679C1354.02 358.729 1346.16 353.466 1346.16 353.466C1344.71 357.964 1346.92 375.859 1345.2 380.217C1344.12 382.959 1343.55 385.979 1344.08 388.884C1344.94 393.577 1348.42 397.147 1349.91 401.594C1351.8 407.239 1355.54 416.002 1355.21 422.15Z" fill="white"/>
<path d="M1354.71 416.764C1354.71 416.764 1350.92 445.775 1338.19 455.869C1328.65 463.424 1388.36 472.006 1406.54 457.967C1407.31 457.368 1407.43 456.229 1406.8 455.48C1405.79 454.289 1404.25 451.819 1402.27 446.698C1398.59 437.179 1394.29 417.668 1394.29 417.668L1354.71 416.764Z" fill="white"/>
<path d="M1434.8 418.678C1433.84 419.904 1432.16 420.176 1429.45 418.589C1425.8 416.445 1422.98 413.33 1420.48 409.964C1417.28 405.672 1413.48 401.865 1409.84 397.933C1404.93 392.623 1399.78 387.409 1395.28 381.742C1391.59 377.116 1388.66 373.601 1390.38 367.143C1390.64 366.159 1391.02 365.18 1391.69 364.407C1392.7 363.233 1394.31 362.93 1395.78 363.106C1399.43 363.549 1401.88 366.147 1404.18 368.733C1406.57 371.426 1409.22 373.906 1411.73 376.495C1417.08 382.029 1422.31 387.728 1426.71 394.057C1429.59 398.184 1432.65 402.266 1434.65 406.932C1436.67 411.675 1436.78 416.18 1434.8 418.678Z" fill="#EFC8B1"/>
<path d="M1428.53 408.016H1428.3C1425.65 408.028 1423.06 408.97 1420.77 410.351C1423.21 413.567 1425.94 416.529 1429.45 418.59C1429.69 418.726 1429.91 418.844 1430.13 418.954C1430.58 418.427 1431 417.877 1431.38 417.288C1433.82 413.479 1434.16 408.104 1428.53 408.016Z" fill="#E8B79E"/>
<path d="M1431.05 409.213C1430.97 409.223 1430.9 409.234 1430.82 409.245C1427.87 409.695 1425.17 411.294 1422.95 413.313C1418.21 417.605 1414.32 423.242 1410.08 428.052C1406.79 431.797 1403.48 435.946 1399.84 439.581C1400.06 439.826 1400.26 440.102 1400.4 440.422C1401.83 443.604 1402.36 445.58 1404.32 448.459C1407.87 442.019 1422.74 432.695 1431.01 423.796C1432.64 422.036 1434.21 420.163 1435.2 417.97C1437.07 413.845 1436.64 408.474 1431.05 409.213Z" fill="#EFC8B1"/>
<path d="M1399.63 444.78C1399.62 444.789 1395.6 449.471 1394.83 449.393C1394.06 449.315 1393.03 448.311 1393.03 448.311L1398.3 441.389C1398.3 441.389 1392.75 446.702 1391.4 446.791C1390.04 446.881 1389.04 445.765 1389.04 445.765L1396.15 438.239C1396.15 438.239 1391.46 443.863 1389.84 444.376C1388.23 444.893 1386.99 443.864 1386.99 443.864L1393.86 435.412L1393.62 436.743C1393.62 436.743 1390.23 439.337 1388.91 439.091C1387.59 438.846 1386.55 438.064 1386.55 438.064C1386.55 438.064 1390.16 435.492 1392.02 433.647C1393.88 431.803 1395.75 432.103 1395.75 432.103C1399.08 434.882 1401.15 439.122 1403.27 442.896C1404.92 445.813 1404.96 451.401 1404.96 451.401C1404.96 451.401 1403.93 453.288 1399.63 444.78Z" fill="#F8D0B7"/>
<path d="M1349.17 302.474C1349.17 302.474 1343.26 313.946 1343.59 330.512C1343.59 330.512 1332.54 315.917 1346.96 295.063L1349.17 302.474Z" fill="#161616"/>
<path d="M1407.15 398.461C1407.15 398.461 1420.3 396.57 1422.97 386.632C1422.97 386.632 1403.93 364.571 1395.71 361.841C1387.49 359.112 1383.9 368.654 1387.8 375.357C1391.71 382.06 1407.15 398.461 1407.15 398.461Z" fill="white"/>
<path d="M1345.37 379.702C1345.37 379.702 1345.94 376.821 1348.22 373.628C1350.51 370.433 1345.93 372.405 1341.49 374.477C1341.49 374.477 1345.4 376.677 1345.39 378.098C1345.39 378.896 1345.37 379.702 1345.37 379.702Z" fill="#E1E4E5"/>
<path d="M1365.89 337.398C1366.35 337.398 1366.76 337.077 1366.88 336.618C1367.35 334.79 1368.98 333.438 1370.94 333.438C1372.89 333.438 1374.53 334.79 1374.99 336.618C1375.11 337.077 1375.52 337.398 1375.99 337.398C1376.64 337.398 1377.16 336.778 1377 336.132C1376.32 333.387 1373.87 331.352 1370.94 331.352C1368 331.352 1365.55 333.387 1364.87 336.132C1364.71 336.778 1365.23 337.398 1365.89 337.398Z" fill="#F05B4E"/>
<path d="M-2.07362 679.928C-2.07362 679.928 -21.0199 770.639 14.9417 803.497C49.9643 835.496 136.137 811.777 136.137 811.777C136.137 811.777 252.446 774.803 313.457 807.599C417.613 863.588 257.805 1020.68 335.788 1109.57C422.635 1208.57 670.754 1148.45 670.754 1148.45" stroke="#FFC819" stroke-width="0.580569"/>
<path d="M474.579 837.439C494.474 843.956 507.209 856.071 512.776 873.776C517.226 887.768 516.983 902.402 512.041 917.684C503.775 943.244 484.413 963.784 453.957 979.304C443.336 984.713 436.041 992.669 432.065 1003.17C430.651 1006.64 429.242 1010.55 427.836 1014.9C425.188 1023.08 416.449 1027.56 408.316 1024.89L400.656 1022.38C392.524 1019.72 388.076 1010.92 390.722 1002.74C398.263 979.417 409.56 963.96 424.615 956.359C440.879 948.137 453.39 938.322 462.15 926.91C467.195 920.258 471.063 912.784 473.746 904.483C476.515 895.919 476.789 888.579 474.57 882.46C472.209 875.424 466.87 871.123 458.545 869.56C450.786 868.039 443.733 871.483 437.395 879.897C437.077 880.303 436.763 880.72 436.454 881.147C431.925 887.386 423.508 889.304 416.729 885.676L410.084 882.12C401.857 877.717 399.303 867.029 404.674 859.368C410.01 851.754 416.514 845.573 424.19 840.82C432.508 835.679 442.55 833.285 454.309 833.64C460.488 833.772 467.246 835.036 474.579 837.439Z" fill="#FCC822"/>
<path d="M1146.7 933.071C1153.9 927.451 1161.35 925.796 1169.05 928.107C1175.15 929.915 1180.33 933.582 1184.6 939.111C1191.73 948.359 1194.35 960.402 1192.46 975.24C1191.8 980.414 1192.86 985.005 1195.65 989.013C1196.54 990.375 1197.6 991.842 1198.81 993.415C1201.1 996.377 1200.56 1000.64 1197.62 1002.94L1194.85 1005.1C1191.9 1007.4 1187.67 1006.86 1185.38 1003.9C1178.88 995.462 1176.11 987.586 1177.07 980.268C1178.1 972.36 1177.64 965.424 1175.7 959.457C1174.55 956.001 1172.82 952.771 1170.5 949.768C1168.12 946.67 1165.55 944.776 1162.82 944.084C1159.72 943.219 1156.88 944.103 1154.28 946.74C1151.84 949.181 1151.35 952.58 1152.81 956.936C1152.88 957.151 1152.95 957.366 1153.03 957.583C1154.16 960.751 1152.78 964.272 1149.83 965.843L1146.93 967.383C1143.34 969.289 1138.89 967.601 1137.46 963.78C1136.04 959.984 1135.42 956.114 1135.59 952.169C1135.78 947.895 1137.38 943.668 1140.38 939.492C1141.94 937.283 1144.05 935.142 1146.7 933.071Z" fill="#FCC822"/>
<defs>
<filter id="filter0_d_33_172" x="1127.59" y="224.887" width="44.1883" height="44.2303" filterUnits="userSpaceOnUse" color-interpolation-filters="sRGB">
<feFlood flood-opacity="0" result="BackgroundImageFix"/>
<feColorMatrix in="SourceAlpha" type="matrix" values="0 0 0 0 0 0 0 0 0 0 0 0 0 0 0 0 0 0 127 0" result="hardAlpha"/>
<feMorphology radius="6.33402" operator="erode" in="SourceAlpha" result="effect1_dropShadow_33_172"/>
<feOffset dy="9.50103"/>
<feGaussianBlur stdDeviation="10.5567"/>
<feColorMatrix type="matrix" values="0 0 0 0 0.243137 0 0 0 0 0.741176 0 0 0 0 1 0 0 0 0.45 0"/>
<feBlend mode="normal" in2="BackgroundImageFix" result="effect1_dropShadow_33_172"/>
<feBlend mode="normal" in="SourceGraphic" in2="effect1_dropShadow_33_172" result="shape"/>
</filter>
<filter id="filter1_d_33_172" x="1523.56" y="413.661" width="44.1883" height="44.2303" filterUnits="userSpaceOnUse" color-interpolation-filters="sRGB">
<feFlood flood-opacity="0" result="BackgroundImageFix"/>
<feColorMatrix in="SourceAlpha" type="matrix" values="0 0 0 0 0 0 0 0 0 0 0 0 0 0 0 0 0 0 127 0" result="hardAlpha"/>
<feMorphology radius="6.33402" operator="erode" in="SourceAlpha" result="effect1_dropShadow_33_172"/>
<feOffset dy="9.50103"/>
<feGaussianBlur stdDeviation="10.5567"/>
<feColorMatrix type="matrix" values="0 0 0 0 0.243137 0 0 0 0 0.741176 0 0 0 0 1 0 0 0 0.45 0"/>
<feBlend mode="normal" in2="BackgroundImageFix" result="effect1_dropShadow_33_172"/>
<feBlend mode="normal" in="SourceGraphic" in2="effect1_dropShadow_33_172" result="shape"/>
</filter>
<filter id="filter2_d_33_172" x="1367.51" y="562.334" width="44.1883" height="44.2303" filterUnits="userSpaceOnUse" color-interpolation-filters="sRGB">
<feFlood flood-opacity="0" result="BackgroundImageFix"/>
<feColorMatrix in="SourceAlpha" type="matrix" values="0 0 0 0 0 0 0 0 0 0 0 0 0 0 0 0 0 0 127 0" result="hardAlpha"/>
<feMorphology radius="6.33402" operator="erode" in="SourceAlpha" result="effect1_dropShadow_33_172"/>
<feOffset dy="9.50103"/>
<feGaussianBlur stdDeviation="10.5567"/>
<feColorMatrix type="matrix" values="0 0 0 0 0.243137 0 0 0 0 0.741176 0 0 0 0 1 0 0 0 0.45 0"/>
<feBlend mode="normal" in2="BackgroundImageFix" result="effect1_dropShadow_33_172"/>
<feBlend mode="normal" in="SourceGraphic" in2="effect1_dropShadow_33_172" result="shape"/>
</filter>
<filter id="filter3_d_33_172" x="1089.55" y="550.595" width="59.7932" height="59.88" filterUnits="userSpaceOnUse" color-interpolation-filters="sRGB">
<feFlood flood-opacity="0" result="BackgroundImageFix"/>
<feColorMatrix in="SourceAlpha" type="matrix" values="0 0 0 0 0 0 0 0 0 0 0 0 0 0 0 0 0 0 127 0" result="hardAlpha"/>
<feMorphology radius="6.33402" operator="erode" in="SourceAlpha" result="effect1_dropShadow_33_172"/>
<feOffset dy="9.50103"/>
<feGaussianBlur stdDeviation="10.5567"/>
<feColorMatrix type="matrix" values="0 0 0 0 0.243137 0 0 0 0 0.741176 0 0 0 0 1 0 0 0 0.45 0"/>
<feBlend mode="normal" in2="BackgroundImageFix" result="effect1_dropShadow_33_172"/>
<feBlend mode="normal" in="SourceGraphic" in2="effect1_dropShadow_33_172" result="shape"/>
</filter>
<filter id="filter4_d_33_172" x="1358.74" y="505.604" width="47.1142" height="47.1646" filterUnits="userSpaceOnUse" color-interpolation-filters="sRGB">
<feFlood flood-opacity="0" result="BackgroundImageFix"/>
<feColorMatrix in="SourceAlpha" type="matrix" values="0 0 0 0 0 0 0 0 0 0 0 0 0 0 0 0 0 0 127 0" result="hardAlpha"/>
<feMorphology radius="6.33402" operator="erode" in="SourceAlpha" result="effect1_dropShadow_33_172"/>
<feOffset dy="9.50103"/>
<feGaussianBlur stdDeviation="10.5567"/>
<feColorMatrix type="matrix" values="0 0 0 0 0.243137 0 0 0 0 0.741176 0 0 0 0 1 0 0 0 0.45 0"/>
<feBlend mode="normal" in2="BackgroundImageFix" result="effect1_dropShadow_33_172"/>
<feBlend mode="normal" in="SourceGraphic" in2="effect1_dropShadow_33_172" result="shape"/>
</filter>
<filter id="filter5_d_33_172" x="888.64" y="504.624" width="47.1142" height="47.1646" filterUnits="userSpaceOnUse" color-interpolation-filters="sRGB">
<feFlood flood-opacity="0" result="BackgroundImageFix"/>
<feColorMatrix in="SourceAlpha" type="matrix" values="0 0 0 0 0 0 0 0 0 0 0 0 0 0 0 0 0 0 127 0" result="hardAlpha"/>
<feMorphology radius="6.33402" operator="erode" in="SourceAlpha" result="effect1_dropShadow_33_172"/>
<feOffset dy="9.50103"/>
<feGaussianBlur stdDeviation="10.5567"/>
<feColorMatrix type="matrix" values="0 0 0 0 0.243137 0 0 0 0 0.741176 0 0 0 0 1 0 0 0 0.45 0"/>
<feBlend mode="normal" in2="BackgroundImageFix" result="effect1_dropShadow_33_172"/>
<feBlend mode="normal" in="SourceGraphic" in2="effect1_dropShadow_33_172" result="shape"/>
</filter>
<filter id="filter6_d_33_172" x="1266.08" y="584.83" width="38.3365" height="38.3617" filterUnits="userSpaceOnUse" color-interpolation-filters="sRGB">
<feFlood flood-opacity="0" result="BackgroundImageFix"/>
<feColorMatrix in="SourceAlpha" type="matrix" values="0 0 0 0 0 0 0 0 0 0 0 0 0 0 0 0 0 0 127 0" result="hardAlpha"/>
<feMorphology radius="6.33402" operator="erode" in="SourceAlpha" result="effect1_dropShadow_33_172"/>
<feOffset dy="9.50103"/>
<feGaussianBlur stdDeviation="10.5567"/>
<feColorMatrix type="matrix" values="0 0 0 0 0.243137 0 0 0 0 0.741176 0 0 0 0 1 0 0 0 0.45 0"/>
<feBlend mode="normal" in2="BackgroundImageFix" result="effect1_dropShadow_33_172"/>
<feBlend mode="normal" in="SourceGraphic" in2="effect1_dropShadow_33_172" result="shape"/>
</filter>
<linearGradient id="paint0_linear_33_172" x1="1142.37" y1="230.166" x2="1158.23" y2="231.645" gradientUnits="userSpaceOnUse">
<stop stop-color="#FCC822"/>
<stop offset="1" stop-color="#FFDD72"/>
</linearGradient>
<linearGradient id="paint1_linear_33_172" x1="1538.34" y1="418.939" x2="1554.2" y2="420.418" gradientUnits="userSpaceOnUse">
<stop stop-color="#FCC822"/>
<stop offset="1" stop-color="#FFDD72"/>
</linearGradient>
<linearGradient id="paint2_linear_33_172" x1="1382.29" y1="567.612" x2="1398.15" y2="569.091" gradientUnits="userSpaceOnUse">
<stop stop-color="#FCC822"/>
<stop offset="1" stop-color="#FFDD72"/>
</linearGradient>
<linearGradient id="paint3_linear_33_172" x1="1104.33" y1="555.874" x2="1137.11" y2="558.93" gradientUnits="userSpaceOnUse">
<stop stop-color="#FCC822"/>
<stop offset="1" stop-color="#FFDD72"/>
</linearGradient>
<linearGradient id="paint4_linear_33_172" x1="1373.52" y1="510.882" x2="1392.55" y2="512.657" gradientUnits="userSpaceOnUse">
<stop stop-color="#FCC822"/>
<stop offset="1" stop-color="#FFDD72"/>
</linearGradient>
<linearGradient id="paint5_linear_33_172" x1="903.42" y1="509.903" x2="922.452" y2="511.678" gradientUnits="userSpaceOnUse">
<stop stop-color="#FCC822"/>
<stop offset="1" stop-color="#FFDD72"/>
</linearGradient>
<linearGradient id="paint6_linear_33_172" x1="1280.86" y1="590.109" x2="1290.38" y2="590.996" gradientUnits="userSpaceOnUse">
<stop stop-color="#FDC68A"/>
<stop offset="1" stop-color="#FCC822"/>
</linearGradient>
<linearGradient id="paint7_linear_33_172" x1="1298.42" y1="359.275" x2="1298.42" y2="371.012" gradientUnits="userSpaceOnUse">
<stop stop-color="#FCC822"/>
<stop offset="1" stop-color="#FFDD72"/>
</linearGradient>
<linearGradient id="paint8_linear_33_172" x1="1327.68" y1="396.133" x2="1327.68" y2="407.87" gradientUnits="userSpaceOnUse">
<stop stop-color="#FCC822"/>
<stop offset="1" stop-color="#FFDD72"/>
</linearGradient>
<linearGradient id="paint9_linear_33_172" x1="1346.21" y1="399.069" x2="1346.21" y2="404.937" gradientUnits="userSpaceOnUse">
<stop stop-color="#FCC822"/>
<stop offset="1" stop-color="#FFDD72"/>
</linearGradient>
<linearGradient id="paint10_linear_33_172" x1="2.93012" y1="0" x2="2.93012" y2="5.86024" gradientUnits="userSpaceOnUse">
<stop stop-color="#FCC822"/>
<stop offset="1" stop-color="#FFDD72"/>
</linearGradient>
<linearGradient id="paint11_linear_33_172" x1="1327.36" y1="417.66" x2="1327.36" y2="423.512" gradientUnits="userSpaceOnUse">
<stop stop-color="#FCC822"/>
<stop offset="1" stop-color="#FFDD72"/>
</linearGradient>
<linearGradient id="paint12_linear_33_172" x1="2.93012" y1="0" x2="2.93012" y2="5.86024" gradientUnits="userSpaceOnUse">
<stop stop-color="#FCC822"/>
<stop offset="1" stop-color="#FFDD72"/>
</linearGradient>
<linearGradient id="paint13_linear_33_172" x1="1309.15" y1="399.068" x2="1309.15" y2="404.937" gradientUnits="userSpaceOnUse">
<stop stop-color="#FCC822"/>
<stop offset="1" stop-color="#FFDD72"/>
</linearGradient>
<linearGradient id="paint14_linear_33_172" x1="2.93012" y1="0" x2="2.93012" y2="5.86024" gradientUnits="userSpaceOnUse">
<stop stop-color="#FCC822"/>
<stop offset="1" stop-color="#FFDD72"/>
</linearGradient>
<linearGradient id="paint15_linear_33_172" x1="1327.36" y1="380.492" x2="1327.36" y2="386.344" gradientUnits="userSpaceOnUse">
<stop stop-color="#FCC822"/>
<stop offset="1" stop-color="#FFDD72"/>
</linearGradient>
<linearGradient id="paint16_linear_33_172" x1="2.93012" y1="0" x2="2.93012" y2="5.86024" gradientUnits="userSpaceOnUse">
<stop stop-color="#FCC822"/>
<stop offset="1" stop-color="#FFDD72"/>
</linearGradient>
</defs>
</svg>
